<mxfile modified="2022-05-18T04:40:57.618Z" host="app.diagrams.net" agent="5.0 (Windows NT 10.0; Win64; x64) AppleWebKit/537.36 (KHTML, like Gecko) Chrome/101.0.4951.67 Safari/537.36" etag="F-O5Hc6mo97L5IixHvVw" version="18.0.7" type="github">
  <diagram id="WI9T0HZ2pTsCkuznbFz-" name="Page-1">
    <mxGraphModel dx="1038" dy="547" grid="1" gridSize="10" guides="1" tooltips="1" connect="1" arrows="1" fold="1" page="1" pageScale="1" pageWidth="1169" pageHeight="827" math="0" shadow="0">
      <root>
        <mxCell id="0" />
        <mxCell id="1" parent="0" />
        <mxCell id="rxB6j44p4bmtlhbTxSTX-2" value="" style="shape=image;verticalLabelPosition=bottom;labelBackgroundColor=#ffffff;verticalAlign=top;aspect=fixed;imageAspect=0;image=data:image/svg+xml,PHN2ZyB4bWxuczpjYz0iaHR0cDovL2NyZWF0aXZlY29tbW9ucy5vcmcvbnMjIiB4bWxuczpkYz0iaHR0cDovL3B1cmwub3JnL2RjL2VsZW1lbnRzLzEuMS8iIHhtbG5zOmlua3NjYXBlPSJodHRwOi8vd3d3Lmlua3NjYXBlLm9yZy9uYW1lc3BhY2VzL2lua3NjYXBlIiB4bWxuczpyZGY9Imh0dHA6Ly93d3cudzMub3JnLzE5OTkvMDIvMjItcmRmLXN5bnRheC1ucyMiIHhtbG5zOnNvZGlwb2RpPSJodHRwOi8vc29kaXBvZGkuc291cmNlZm9yZ2UubmV0L0RURC9zb2RpcG9kaS0wLmR0ZCIgeG1sbnM6c3ZnPSJodHRwOi8vd3d3LnczLm9yZy8yMDAwL3N2ZyIgeG1sbnM9Imh0dHA6Ly93d3cudzMub3JnLzIwMDAvc3ZnIiB4bWxuczp4bGluaz0iaHR0cDovL3d3dy53My5vcmcvMTk5OS94bGluayIgdmVyc2lvbj0iMS4xIiBpZD0ic3ZnMTE5NSIgaW5rc2NhcGU6dmVyc2lvbj0iMC45Mi4zICgyNDA1NTQ2LCAyMDE4LTAzLTExKSIgc29kaXBvZGk6ZG9jbmFtZT0iYW5kcm9pZC5zdmciIHg9IjBweCIgeT0iMHB4IiB2aWV3Qm94PSIwIDAgMjkuMzggNTAuODUiIHN0eWxlPSJlbmFibGUtYmFja2dyb3VuZDpuZXcgMCAwIDI5LjM4IDUwLjg1OyIgeG1sOnNwYWNlPSJwcmVzZXJ2ZSI+JiN4YTs8c29kaXBvZGk6bmFtZWR2aWV3IGJvcmRlcmNvbG9yPSIjNjY2NjY2IiBib3JkZXJvcGFjaXR5PSIxIiBmaXQtbWFyZ2luLWJvdHRvbT0iMCIgZml0LW1hcmdpbi1sZWZ0PSIwIiBmaXQtbWFyZ2luLXJpZ2h0PSIwIiBmaXQtbWFyZ2luLXRvcD0iMCIgZ3JpZHRvbGVyYW5jZT0iMTAiIGd1aWRldG9sZXJhbmNlPSIxMCIgaWQ9Im5hbWVkdmlldzExOTciIGlua3NjYXBlOmN1cnJlbnQtbGF5ZXI9InN2ZzExOTUiIGlua3NjYXBlOmN4PSIxOS41ODkzNCIgaW5rc2NhcGU6Y3k9IjMzLjg5NzQ3NiIgaW5rc2NhcGU6cGFnZW9wYWNpdHk9IjAiIGlua3NjYXBlOnBhZ2VzaGFkb3c9IjIiIGlua3NjYXBlOndpbmRvdy1oZWlnaHQ9IjEwMTciIGlua3NjYXBlOndpbmRvdy1tYXhpbWl6ZWQ9IjEiIGlua3NjYXBlOndpbmRvdy13aWR0aD0iMTkyMCIgaW5rc2NhcGU6d2luZG93LXg9Ii04IiBpbmtzY2FwZTp3aW5kb3cteT0iLTgiIGlua3NjYXBlOnpvb209IjEyLjc4NjY1MSIgb2JqZWN0dG9sZXJhbmNlPSIxMCIgcGFnZWNvbG9yPSIjZmZmZmZmIiBzaG93Z3JpZD0iZmFsc2UiPiYjeGE7CTwvc29kaXBvZGk6bmFtZWR2aWV3PiYjeGE7PGcgaWQ9ImcxMTkzIiB0cmFuc2Zvcm09InRyYW5zbGF0ZSgtMi42ODI2ODU1ZS01KSI+JiN4YTsJPHRpdGxlIGlkPSJ0aXRsZTExNjMiPlBhZ2UtMTwvdGl0bGU+JiN4YTsJPGcgaWQ9Imdyb3VwMzQ5OS0xIj4mI3hhOwkJPHRpdGxlIGlkPSJ0aXRsZTExNjUiPkFuZHJvaWQ8L3RpdGxlPiYjeGE7CQk8ZyBpZD0ic2hhcGUzNTAwLTIiPiYjeGE7CQkJPHRpdGxlIGlkPSJ0aXRsZTExNjciPlNoZWV0LjM1MDA8L3RpdGxlPiYjeGE7CQkJPHBhdGggaWQ9InBhdGgxMTY5IiBpbmtzY2FwZTpjb25uZWN0b3ItY3VydmF0dXJlPSIwIiBzdHlsZT0iZmlsbDojM0Y1NzY1OyIgZD0iTTI3LjQzLDBDMi4xLDAsMi4xLDAsMi4xLDBDMC45MiwwLDAsMC44LDAsMS44NCAgICAgYzAsNDYuOTUsMCw0Ni45NSwwLDQ2Ljk1YzAsMC45MiwwLjkyLDIuMDYsMi4xLDIuMDZjMjUuMzMsMCwyNS4zMywwLDI1LjMzLDBjMS4wNywwLDEuOTUtMS4xNCwxLjk1LTIuMDYgICAgIGMwLTQ2Ljk1LDAtNDYuOTUsMC00Ni45NUMyOS4zOCwwLjgsMjguNSwwLDI3LjQzLDB6Ii8+JiN4YTsJCTwvZz4mI3hhOwkJPGcgaWQ9InNoYXBlMzUwMS00IiB0cmFuc2Zvcm09InRyYW5zbGF0ZSgzLjA2MDg0LC03LjI1MTY3KSI+JiN4YTsJCQk8dGl0bGUgaWQ9InRpdGxlMTE3MiI+U2hlZXQuMzUwMTwvdGl0bGU+JiN4YTsJCQk8cGF0aCBpZD0icGF0aDExNzQiIGlua3NjYXBlOmNvbm5lY3Rvci1jdXJ2YXR1cmU9IjAiIHN0eWxlPSJmaWxsOiNGRkZGRkY7IiBkPSJNMCwxMC41OWgyMy4yNnY0MC4yNkgwVjEwLjU5eiIvPiYjeGE7CQk8L2c+JiN4YTsJCTxnIGlkPSJzaGFwZTM1MDItNiIgdHJhbnNmb3JtPSJ0cmFuc2xhdGUoMTIuODU1NSwtMy4wNjM0OCkiPiYjeGE7CQkJPHRpdGxlIGlkPSJ0aXRsZTExNzciPlNoZWV0LjM1MDI8L3RpdGxlPiYjeGE7CQkJPHBhdGggaWQ9InBhdGgxMTc5IiBpbmtzY2FwZTpjb25uZWN0b3ItY3VydmF0dXJlPSIwIiBzdHlsZT0iZmlsbDojRkZGRkZGOyIgZD0iTTAsNDkuMzJjMC0wLjg0LDAuNzctMS41MywxLjY0LTEuNTMgICAgIGMwLjkzLDAsMS42NSwwLjY5LDEuNjUsMS41M2MwLDAuODgtMC43MiwxLjUzLTEuNjUsMS41M0MwLjc3LDUwLjg1LDAsNTAuMiwwLDQ5LjMyeiIvPiYjeGE7CQk8L2c+JiN4YTsJCTxnIGlkPSJzaGFwZTM1MDMtOCIgdHJhbnNmb3JtPSJ0cmFuc2xhdGUoMTcuNzUyOSwtMy42NzYxOCkiPiYjeGE7CQkJPHRpdGxlIGlkPSJ0aXRsZTExODIiPlNoZWV0LjM1MDM8L3RpdGxlPiYjeGE7CQkJPHBhdGggaWQ9InBhdGgxMTg0IiBpbmtzY2FwZTpjb25uZWN0b3ItY3VydmF0dXJlPSIwIiBzdHlsZT0iZmlsbDojRkZGRkZGOyIgZD0iTTAsNDkuOTNjMC0wLjQ5LDAuMzEtMC45MSwwLjYxLTAuOTEgICAgIGMwLjM1LDAsMC42MSwwLjQyLDAuNjEsMC45MWMwLDAuNTQtMC4yNiwwLjkyLTAuNjEsMC45MkMwLjMxLDUwLjg1LDAsNTAuNDcsMCw0OS45M3oiLz4mI3hhOwkJPC9nPiYjeGE7CQk8ZyBpZD0ic2hhcGUzNTA0LTEwIiB0cmFuc2Zvcm09InRyYW5zbGF0ZSg5LjE4MjUxLC0zLjY3NjE4KSI+JiN4YTsJCQk8dGl0bGUgaWQ9InRpdGxlMTE4NyI+U2hlZXQuMzUwNDwvdGl0bGU+JiN4YTsJCQk8cGF0aCBpZD0icGF0aDExODkiIGlua3NjYXBlOmNvbm5lY3Rvci1jdXJ2YXR1cmU9IjAiIHN0eWxlPSJmaWxsOiNGRkZGRkY7IiBkPSJNMCw0OS45M2MwLTAuNDksMC4zMS0wLjkxLDAuNjEtMC45MSAgICAgYzAuMzUsMCwwLjYxLDAuNDIsMC42MSwwLjkxYzAsMC41NC0wLjI2LDAuOTItMC42MSwwLjkyQzAuMzEsNTAuODUsMCw1MC40NywwLDQ5LjkzeiIvPiYjeGE7CQk8L2c+JiN4YTsJPC9nPiYjeGE7PC9nPiYjeGE7PC9zdmc+;" parent="1" vertex="1">
          <mxGeometry x="80" y="30" width="29" height="51" as="geometry" />
        </mxCell>
        <mxCell id="rxB6j44p4bmtlhbTxSTX-30" style="edgeStyle=orthogonalEdgeStyle;rounded=0;orthogonalLoop=1;jettySize=auto;html=1;exitX=0.5;exitY=0;exitDx=0;exitDy=0;entryX=0.5;entryY=1;entryDx=0;entryDy=0;" parent="1" source="rxB6j44p4bmtlhbTxSTX-29" target="rxB6j44p4bmtlhbTxSTX-2" edge="1">
          <mxGeometry relative="1" as="geometry" />
        </mxCell>
        <mxCell id="rxB6j44p4bmtlhbTxSTX-31" style="edgeStyle=orthogonalEdgeStyle;rounded=0;orthogonalLoop=1;jettySize=auto;html=1;exitX=0.5;exitY=0;exitDx=0;exitDy=0;" parent="1" source="rxB6j44p4bmtlhbTxSTX-29" edge="1">
          <mxGeometry relative="1" as="geometry">
            <mxPoint x="270" y="80" as="targetPoint" />
          </mxGeometry>
        </mxCell>
        <mxCell id="rxB6j44p4bmtlhbTxSTX-29" value="" style="shape=ext;double=1;whiteSpace=wrap;html=1;aspect=fixed;" parent="1" vertex="1">
          <mxGeometry x="54" y="144.5" width="222" height="222" as="geometry" />
        </mxCell>
        <mxCell id="rxB6j44p4bmtlhbTxSTX-3" value="" style="shape=image;verticalLabelPosition=bottom;labelBackgroundColor=#ffffff;verticalAlign=top;aspect=fixed;imageAspect=0;image=data:image/svg+xml,PHN2ZyB4bWxuczpjYz0iaHR0cDovL2NyZWF0aXZlY29tbW9ucy5vcmcvbnMjIiB4bWxuczpkYz0iaHR0cDovL3B1cmwub3JnL2RjL2VsZW1lbnRzLzEuMS8iIHhtbG5zOmlua3NjYXBlPSJodHRwOi8vd3d3Lmlua3NjYXBlLm9yZy9uYW1lc3BhY2VzL2lua3NjYXBlIiB4bWxuczpyZGY9Imh0dHA6Ly93d3cudzMub3JnLzE5OTkvMDIvMjItcmRmLXN5bnRheC1ucyMiIHhtbG5zOnNvZGlwb2RpPSJodHRwOi8vc29kaXBvZGkuc291cmNlZm9yZ2UubmV0L0RURC9zb2RpcG9kaS0wLmR0ZCIgeG1sbnM6c3ZnPSJodHRwOi8vd3d3LnczLm9yZy8yMDAwL3N2ZyIgeG1sbnM9Imh0dHA6Ly93d3cudzMub3JnLzIwMDAvc3ZnIiB4bWxuczp4bGluaz0iaHR0cDovL3d3dy53My5vcmcvMTk5OS94bGluayIgdmVyc2lvbj0iMS4xIiBpZD0ic3ZnMTkxOCIgaW5rc2NhcGU6dmVyc2lvbj0iMC45Mi4zICgyNDA1NTQ2LCAyMDE4LTAzLTExKSIgc29kaXBvZGk6ZG9jbmFtZT0iZGVza3RvcC5zdmciIHg9IjBweCIgeT0iMHB4IiB2aWV3Qm94PSIwIDAgNTUuNjYgMzMuMzMiIHN0eWxlPSJlbmFibGUtYmFja2dyb3VuZDpuZXcgMCAwIDU1LjY2IDMzLjMzOyIgeG1sOnNwYWNlPSJwcmVzZXJ2ZSI+JiN4YTs8c29kaXBvZGk6bmFtZWR2aWV3IGJvcmRlcmNvbG9yPSIjNjY2NjY2IiBib3JkZXJvcGFjaXR5PSIxIiBmaXQtbWFyZ2luLWJvdHRvbT0iMCIgZml0LW1hcmdpbi1sZWZ0PSIwIiBmaXQtbWFyZ2luLXJpZ2h0PSIwIiBmaXQtbWFyZ2luLXRvcD0iMCIgZ3JpZHRvbGVyYW5jZT0iMTAiIGd1aWRldG9sZXJhbmNlPSIxMCIgaWQ9Im5hbWVkdmlldzE5MjAiIGlua3NjYXBlOmN1cnJlbnQtbGF5ZXI9InN2ZzE5MTgiIGlua3NjYXBlOmN4PSI1NC43MjUwMzkiIGlua3NjYXBlOmN5PSIxNy4zOTkwNDQiIGlua3NjYXBlOnBhZ2VvcGFjaXR5PSIwIiBpbmtzY2FwZTpwYWdlc2hhZG93PSIyIiBpbmtzY2FwZTp3aW5kb3ctaGVpZ2h0PSIxMDE3IiBpbmtzY2FwZTp3aW5kb3ctbWF4aW1pemVkPSIxIiBpbmtzY2FwZTp3aW5kb3ctd2lkdGg9IjE5MjAiIGlua3NjYXBlOndpbmRvdy14PSItOCIgaW5rc2NhcGU6d2luZG93LXk9Ii04IiBpbmtzY2FwZTp6b29tPSIxMS4xMTE0NjQiIG9iamVjdHRvbGVyYW5jZT0iMTAiIHBhZ2Vjb2xvcj0iI2ZmZmZmZiIgc2hvd2dyaWQ9ImZhbHNlIj4mI3hhOwk8L3NvZGlwb2RpOm5hbWVkdmlldz4mI3hhOzxnIGlkPSJncm91cDM1MTgtMyIgdHJhbnNmb3JtPSJ0cmFuc2xhdGUoMTAuMTE4ODU4LC04LjA0Njc1MikiPiYjeGE7CTx0aXRsZSBpZD0idGl0bGUxNzYyIj5nOTk5NDwvdGl0bGU+JiN4YTsJPGcgaWQ9Imdyb3VwMzUxOS00IiB0cmFuc2Zvcm09InRyYW5zbGF0ZSg1LjM1NzA2KSI+JiN4YTsJCTx0aXRsZSBpZD0idGl0bGUxNzY0Ij5nOTk4MDwvdGl0bGU+JiN4YTsJCTxnIGlkPSJzaGFwZTM1MjAtNSIgdHJhbnNmb3JtPSJ0cmFuc2xhdGUoMCwtMC44OTI4NDQpIj4mI3hhOwkJCTx0aXRsZSBpZD0idGl0bGUxNzY2Ij5wb2x5Z29uOTk3NDwvdGl0bGU+JiN4YTsJCQk8cGF0aCBpZD0icGF0aDE3NjgiIGlua3NjYXBlOmNvbm5lY3Rvci1jdXJ2YXR1cmU9IjAiIHN0eWxlPSJmaWxsOiM4MDgwODA7IiBkPSJNMi4xOCwzOWgzMC42bDIuMDQsMi4zOEgwTDIuMTgsMzl6Ii8+JiN4YTsJCTwvZz4mI3hhOwkJPGcgaWQ9InNoYXBlMzUyMS03IiB0cmFuc2Zvcm09InRyYW5zbGF0ZSgzLjI3Mzc2LC0xLjE5MDQ2KSI+JiN4YTsJCQk8dGl0bGUgaWQ9InRpdGxlMTc3MSI+cG9seWdvbjk5NzY8L3RpdGxlPiYjeGE7CQkJPHBhdGggaWQ9InBhdGgxNzczIiBpbmtzY2FwZTpjb25uZWN0b3ItY3VydmF0dXJlPSIwIiBzdHlsZT0iZmlsbDojMkUyRTJFOyIgZD0iTTAuOTksMzkuODloMjYuMzJsMC45NiwxLjQ5SDBMMC45OSwzOS44OXoiLz4mI3hhOwkJPC9nPiYjeGE7CQk8ZyBpZD0ic2hhcGUzNTIyLTkiPiYjeGE7CQkJPHRpdGxlIGlkPSJ0aXRsZTE3NzYiPnBhdGg5OTc4PC90aXRsZT4mI3hhOwkJCTxwYXRoIGlkPSJwYXRoMTc3OCIgaW5rc2NhcGU6Y29ubmVjdG9yLWN1cnZhdHVyZT0iMCIgc3R5bGU9ImZpbGw6IzFBMUExQTsiIGQ9Ik0zMy4zNyw0MS4zOEgxLjQ5QzAuMDEsNDEuMzgsMCw0MC41MSwwLDQwLjUxICAgICBoMzQuNzRDMzQuNzQsNDAuNTEsMzQuOTEsNDEuMzgsMzMuMzcsNDEuMzh6Ii8+JiN4YTsJCTwvZz4mI3hhOwk8L2c+JiN4YTsJPGcgaWQ9InNoYXBlMzUyMy0xMSIgdHJhbnNmb3JtPSJ0cmFuc2xhdGUoMTkuNjQyNiwtNC45MTA2NCkiPiYjeGE7CQk8dGl0bGUgaWQ9InRpdGxlMTc4MiI+cG9seWdvbjk5ODI8L3RpdGxlPiYjeGE7CQk8cGF0aCBpZD0icGF0aDE3ODQiIGlua3NjYXBlOmNvbm5lY3Rvci1jdXJ2YXR1cmU9IjAiIHN0eWxlPSJmaWxsOiMxQTFBMUE7IiBkPSJNMC42LDM3LjIxaDQuNzZsMC4wNCwwLjNsMC41NSwzLjg3SDBMMC42LDM3LjIxeiIvPiYjeGE7CTwvZz4mI3hhOwk8ZyBpZD0ic2hhcGUzNTI0LTEzIiB0cmFuc2Zvcm09InRyYW5zbGF0ZSgyMi42MTg3LC00LjkxMDY0KSI+JiN4YTsJCTx0aXRsZSBpZD0idGl0bGUxNzg3Ij5wb2x5Z29uOTk4NDwvdGl0bGU+JiN4YTsJCTxwYXRoIGlkPSJwYXRoMTc4OSIgaW5rc2NhcGU6Y29ubmVjdG9yLWN1cnZhdHVyZT0iMCIgc3R5bGU9ImZpbGw6IzJFMkUyRTsiIGQ9Ik0wLDM3LjUxaDIuNDJsMC41NiwzLjg3SDBWMzcuNTF6Ii8+JiN4YTsJPC9nPiYjeGE7CTxnIGlkPSJzaGFwZTM1MjUtMTUiIHRyYW5zZm9ybT0idHJhbnNsYXRlKDAsLTguMzMzMjEpIj4mI3hhOwkJPHRpdGxlIGlkPSJ0aXRsZTE3OTIiPnJlY3Q5OTg2PC90aXRsZT4mI3hhOwkJPHBhdGggaWQ9InBhdGgxNzk0IiBpbmtzY2FwZTpjb25uZWN0b3ItY3VydmF0dXJlPSIwIiBzdHlsZT0iZmlsbDojMjIxRjFGOyIgZD0iTTAsNDAuMTljMCwwLjY2LDAuNTMsMS4xOSwxLjE5LDEuMTloNDMuMTUgICAgYzAuNjYsMC4wMSwxLjE5LTAuNTIsMS4yLTEuMThjMCwwLDAtMC4wMSwwLTAuMDFWMTcuNTdjMC0wLjY2LTAuNTMtMS4xOS0xLjE5LTEuMTljMCwwLTAuMDEsMC0wLjAxLDBIMS4xOSAgICBDMC41MywxNi4zOCwwLDE2LjkxLDAsMTcuNTdWNDAuMTl6Ii8+JiN4YTsJPC9nPiYjeGE7CTxnIGlkPSJzaGFwZTM1MjYtMTciIHRyYW5zZm9ybT0idHJhbnNsYXRlKDEuMTkwNDYsLTkuNTIzNjcpIj4mI3hhOwkJPHRpdGxlIGlkPSJ0aXRsZTE3OTciPnJlY3Q5OTg4PC90aXRsZT4mI3hhOwkJPHJlY3QgaWQ9InJlY3QxNzk5IiB4PSIwIiB5PSIxOC43NiIgc3R5bGU9ImZpbGw6IzgwQkNFQjsiIHdpZHRoPSI0My4xNSIgaGVpZ2h0PSIyMi42MiIvPiYjeGE7CTwvZz4mI3hhOwk8ZyBpZD0ic2hhcGUzNTI3LTE5IiB0cmFuc2Zvcm09InRyYW5zbGF0ZSgxMy4zOTI3LC0zLjg2ODk5KSI+JiN4YTsJCTx0aXRsZSBpZD0idGl0bGUxODAyIj5wYXRoOTk5MDwvdGl0bGU+JiN4YTsJCTxwYXRoIGlkPSJwYXRoMTgwNCIgaW5rc2NhcGU6Y29ubmVjdG9yLWN1cnZhdHVyZT0iMCIgc3R5bGU9ImZpbGw6IzJFMkUyRTsiIGQ9Ik0xOC4wOSw0MS4zOEgwLjY2QzAuMzEsNDEuNCwwLjAyLDQxLjEzLDAsNDAuNzggICAgYzAsMC4wMSwxLjExLTAuODksMS4xNy0wLjg5aDE2LjEyYzAuNjcsMCwxLjQ2LDAuOSwxLjQ2LDAuOUMxOC43Myw0MS4xNCwxOC40NCw0MS40LDE4LjA5LDQxLjM4TDE4LjA5LDQxLjM4eiIvPiYjeGE7CTwvZz4mI3hhOwk8ZyBpZD0ic2hhcGUzNTI4LTIxIiB0cmFuc2Zvcm09InRyYW5zbGF0ZSgzMi43Mzc2LC0yMC41MzU0KSI+JiN4YTsJCTx0aXRsZSBpZD0idGl0bGUxODA3Ij5wb2x5Z29uOTk5MjwvdGl0bGU+JiN4YTsJCTxwYXRoIGlkPSJwYXRoMTgwOSIgaW5rc2NhcGU6Y29ubmVjdG9yLWN1cnZhdHVyZT0iMCIgc3R5bGU9ImZpbGw6I0FBRDJGMjsiIGQ9Ik0wLDI5Ljc3aDExLjYxdjExLjYxTDAsMjkuNzd6Ii8+JiN4YTsJPC9nPiYjeGE7PC9nPiYjeGE7PGcgaWQ9InNoYXBlMzUyOS0yMyIgdHJhbnNmb3JtPSJ0cmFuc2xhdGUoNy43Mzc5Mzc4LC02LjI2MTA2MikiPiYjeGE7CTx0aXRsZSBpZD0idGl0bGUxODEzIj5yZWN0OTk5NjwvdGl0bGU+JiN4YTsJPHJlY3QgaWQ9InJlY3QxODE1IiB4PSIwIiB5PSIxLjUiIHN0eWxlPSJmaWxsOm5vbmU7IiB3aWR0aD0iNTAiIGhlaWdodD0iMzkuODgiLz4mI3hhOzwvZz4mI3hhOzxnIGlkPSJzaGFwZTM1MzEtMjYiIHRyYW5zZm9ybT0idHJhbnNsYXRlKC00LjIyMzMzMTNlLTUsLTguMzQ0MzYyKSI+JiN4YTsJPHRpdGxlIGlkPSJ0aXRsZTE4MjEiPnJlY3QxMDAwMDwvdGl0bGU+JiN4YTsJPHJlY3QgaWQ9InJlY3QxODIzIiB4PSIwIiB5PSIxNCIgc3R5bGU9ImZpbGw6IzY2NjY2NjsiIHdpZHRoPSIxMy42OSIgaGVpZ2h0PSIyNy4zOCIvPiYjeGE7PC9nPiYjeGE7PGcgaWQ9Imdyb3VwMzUzMi0yOCIgdHJhbnNmb3JtPSJ0cmFuc2xhdGUoMC4yMzIwOTY3NywtOC4zNDQzNjIpIj4mI3hhOwk8dGl0bGUgaWQ9InRpdGxlMTgyNiI+ZzEwMDE0PC90aXRsZT4mI3hhOwk8ZyBpZD0ic2hhcGUzNTMzLTI5IiB0cmFuc2Zvcm09InRyYW5zbGF0ZSg4LjM5ODY4KSI+JiN4YTsJCTx0aXRsZSBpZD0idGl0bGUxODI4Ij5yZWN0MTAwMDI8L3RpdGxlPiYjeGE7CQk8cmVjdCBpZD0icmVjdDE4MzAiIHg9IjAiIHk9IjE0IiBzdHlsZT0iZmlsbDojNEQ0RDREOyIgd2lkdGg9IjUuMDYiIGhlaWdodD0iMjcuMzgiLz4mI3hhOwk8L2c+JiN4YTsJPGcgaWQ9InNoYXBlMzUzNC0zMSIgdHJhbnNmb3JtPSJ0cmFuc2xhdGUoMCwtMjMuOTgxOCkiPiYjeGE7CQk8dGl0bGUgaWQ9InRpdGxlMTgzMyI+cG9seWdvbjEwMDA0PC90aXRsZT4mI3hhOwkJPHJlY3QgaWQ9InJlY3QxODM1IiB4PSIwIiB5PSI0MC42NCIgc3R5bGU9ImZpbGw6bm9uZTsiIHdpZHRoPSI5LjE1IiBoZWlnaHQ9IjAuNzQiLz4mI3hhOwk8L2c+JiN4YTsJPGcgaWQ9InNoYXBlMzUzNS0zMyIgdHJhbnNmb3JtPSJ0cmFuc2xhdGUoMCwtMjMuOTgxOCkiPiYjeGE7CQk8dGl0bGUgaWQ9InRpdGxlMTgzOCI+cG9seWxpbmUxMDAwNjwvdGl0bGU+JiN4YTsJCTxyZWN0IGlkPSJyZWN0MTg0MCIgeD0iMCIgeT0iNDAuNjQiIHN0eWxlPSJmaWxsOm5vbmU7IiB3aWR0aD0iOS4xNSIgaGVpZ2h0PSIwLjc0Ii8+JiN4YTsJPC9nPiYjeGE7CTxnIGlkPSJzaGFwZTM1MzYtMzUiIHRyYW5zZm9ybT0idHJhbnNsYXRlKDguMTAxMDcsLTI0LjEwNjgpIj4mI3hhOwkJPHRpdGxlIGlkPSJ0aXRsZTE4NDMiPnJlY3QxMDAwODwvdGl0bGU+JiN4YTsJCTxyZWN0IGlkPSJyZWN0MTg0NSIgeD0iMCIgeT0iNDAuNzkiIHdpZHRoPSI0Ljc2IiBoZWlnaHQ9IjAuNiIvPiYjeGE7CTwvZz4mI3hhOwk8ZyBpZD0ic2hhcGUzNTM3LTM3IiB0cmFuc2Zvcm09InRyYW5zbGF0ZSgwLjM2MzA5LC0yNC4xMDY4KSI+JiN4YTsJCTx0aXRsZSBpZD0idGl0bGUxODQ4Ij5yZWN0MTAwMTA8L3RpdGxlPiYjeGE7CQk8cmVjdCBpZD0icmVjdDE4NTAiIHg9IjAiIHk9IjQwLjc5IiBzdHlsZT0iZmlsbDojMzMzMzMzOyIgd2lkdGg9IjUuMDYiIGhlaWdodD0iMC42Ii8+JiN4YTsJPC9nPiYjeGE7CTxnIGlkPSJzaGFwZTM1MzgtMzkiIHRyYW5zZm9ybT0idHJhbnNsYXRlKDUuNDIyNTQsLTI0LjEwNjgpIj4mI3hhOwkJPHRpdGxlIGlkPSJ0aXRsZTE4NTMiPnBvbHlnb24xMDAxMjwvdGl0bGU+JiN4YTsJCTxyZWN0IGlkPSJyZWN0MTg1NSIgeD0iMCIgeT0iNDAuNzkiIHN0eWxlPSJmaWxsOiNENEU4Rjg7IiB3aWR0aD0iMi45OCIgaGVpZ2h0PSIwLjYiLz4mI3hhOwk8L2c+JiN4YTs8L2c+JiN4YTs8ZyBpZD0ic2hhcGUzNTM5LTQxIiB0cmFuc2Zvcm09InRyYW5zbGF0ZSgtNC4yMjMzMzEzZS01LC0zMi40NTExNjIpIj4mI3hhOwk8dGl0bGUgaWQ9InRpdGxlMTg1OSI+cmVjdDEwMDE2PC90aXRsZT4mI3hhOwk8cmVjdCBpZD0icmVjdDE4NjEiIHg9IjAiIHk9IjQwLjc5IiBzdHlsZT0iZmlsbDojRkZGRkZGOyIgd2lkdGg9IjAuNiIgaGVpZ2h0PSIwLjYiLz4mI3hhOzwvZz4mI3hhOzxnIGlkPSJzaGFwZTM1NDAtNDMiIHRyYW5zZm9ybT0idHJhbnNsYXRlKDguMzMzMTY3OCwtMzAuNjY1NDYyKSI+JiN4YTsJPHRpdGxlIGlkPSJ0aXRsZTE4NjQiPnJlY3QxMDAxODwvdGl0bGU+JiN4YTsJPHJlY3QgaWQ9InJlY3QxODY2IiB4PSIwIiB5PSI0MC43OSIgd2lkdGg9IjQuNzYiIGhlaWdodD0iMC42Ii8+JiN4YTs8L2c+JiN4YTs8ZyBpZD0ic2hhcGUzNTQxLTQ1IiB0cmFuc2Zvcm09InRyYW5zbGF0ZSgwLjU5NTE4Njc3LC0zMC42NjU0NjIpIj4mI3hhOwk8dGl0bGUgaWQ9InRpdGxlMTg2OSI+cmVjdDEwMDIwPC90aXRsZT4mI3hhOwk8cmVjdCBpZD0icmVjdDE4NzEiIHg9IjAiIHk9IjQwLjc5IiBzdHlsZT0iZmlsbDojMzMzMzMzOyIgd2lkdGg9IjUuMDYiIGhlaWdodD0iMC42Ii8+JiN4YTs8L2c+JiN4YTs8ZyBpZD0ic2hhcGUzNTQyLTQ3IiB0cmFuc2Zvcm09InRyYW5zbGF0ZSg1LjY1NDYzNzgsLTMwLjY2NTQ2MikiPiYjeGE7CTx0aXRsZSBpZD0idGl0bGUxODc0Ij5wb2x5Z29uMTAwMjI8L3RpdGxlPiYjeGE7CTxyZWN0IGlkPSJyZWN0MTg3NiIgeD0iMCIgeT0iNDAuNzkiIHN0eWxlPSJmaWxsOiNENEU4Rjg7IiB3aWR0aD0iMi45OCIgaGVpZ2h0PSIwLjYiLz4mI3hhOzwvZz4mI3hhOzxnIGlkPSJzaGFwZTM1NDMtNDkiIHRyYW5zZm9ybT0idHJhbnNsYXRlKC00LjIyMzMzMTNlLTUsLTMwLjY2NTQ2MikiPiYjeGE7CTx0aXRsZSBpZD0idGl0bGUxODc5Ij5yZWN0MTAwMjQ8L3RpdGxlPiYjeGE7CTxyZWN0IGlkPSJyZWN0MTg4MSIgeD0iMCIgeT0iNDAuNzkiIHN0eWxlPSJmaWxsOiNGRkZGRkY7IiB3aWR0aD0iMC42IiBoZWlnaHQ9IjAuNiIvPiYjeGE7PC9nPiYjeGE7PGcgaWQ9InNoYXBlMzU0NC01MSIgdHJhbnNmb3JtPSJ0cmFuc2xhdGUoOC4zMzMxNjc4LC0yOC44Nzk3NjIpIj4mI3hhOwk8dGl0bGUgaWQ9InRpdGxlMTg4NCI+cmVjdDEwMDI2PC90aXRsZT4mI3hhOwk8cmVjdCBpZD0icmVjdDE4ODYiIHg9IjAiIHk9IjQwLjc5IiB3aWR0aD0iNC43NiIgaGVpZ2h0PSIwLjYiLz4mI3hhOzwvZz4mI3hhOzxnIGlkPSJzaGFwZTM1NDUtNTMiIHRyYW5zZm9ybT0idHJhbnNsYXRlKDAuNTk1MTg2NzcsLTI4Ljg3OTc2MikiPiYjeGE7CTx0aXRsZSBpZD0idGl0bGUxODg5Ij5yZWN0MTAwMjg8L3RpdGxlPiYjeGE7CTxyZWN0IGlkPSJyZWN0MTg5MSIgeD0iMCIgeT0iNDAuNzkiIHN0eWxlPSJmaWxsOiMzMzMzMzM7IiB3aWR0aD0iNS4wNiIgaGVpZ2h0PSIwLjYiLz4mI3hhOzwvZz4mI3hhOzxnIGlkPSJzaGFwZTM1NDYtNTUiIHRyYW5zZm9ybT0idHJhbnNsYXRlKDUuNjU0NjM3OCwtMjguODc5NzYyKSI+JiN4YTsJPHRpdGxlIGlkPSJ0aXRsZTE4OTQiPnBvbHlnb24xMDAzMDwvdGl0bGU+JiN4YTsJPHJlY3QgaWQ9InJlY3QxODk2IiB4PSIwIiB5PSI0MC43OSIgc3R5bGU9ImZpbGw6I0Q0RThGODsiIHdpZHRoPSIyLjk4IiBoZWlnaHQ9IjAuNiIvPiYjeGE7PC9nPiYjeGE7PGcgaWQ9InNoYXBlMzU0Ny01NyIgdHJhbnNmb3JtPSJ0cmFuc2xhdGUoLTQuMjIzMzMxM2UtNSwtMjguODc5NzYyKSI+JiN4YTsJPHRpdGxlIGlkPSJ0aXRsZTE4OTkiPnJlY3QxMDAzMjwvdGl0bGU+JiN4YTsJPHJlY3QgaWQ9InJlY3QxOTAxIiB4PSIwIiB5PSI0MC43OSIgc3R5bGU9ImZpbGw6I0ZGRkZGRjsiIHdpZHRoPSIwLjYiIGhlaWdodD0iMC42Ii8+JiN4YTs8L2c+JiN4YTs8ZyBpZD0ic2hhcGUzNTQ4LTU5IiB0cmFuc2Zvcm09InRyYW5zbGF0ZSgtNC4yMjMzMzEzZS01LC0yNy4wOTQwNjIpIj4mI3hhOwk8dGl0bGUgaWQ9InRpdGxlMTkwNCI+cmVjdDEwMDM0PC90aXRsZT4mI3hhOwk8cmVjdCBpZD0icmVjdDE5MDYiIHg9IjAiIHk9IjQwLjc5IiBzdHlsZT0iZmlsbDojRkZGRkZGOyIgd2lkdGg9IjAuNiIgaGVpZ2h0PSIwLjYiLz4mI3hhOzwvZz4mI3hhOzxnIGlkPSJzaGFwZTM1NDktNjEiIHRyYW5zZm9ybT0idHJhbnNsYXRlKC00LjIyMzMzMTNlLTUsLTI1LjMwODM2MikiPiYjeGE7CTx0aXRsZSBpZD0idGl0bGUxOTA5Ij5yZWN0MTAwMzY8L3RpdGxlPiYjeGE7CTxyZWN0IGlkPSJyZWN0MTkxMSIgeD0iMCIgeT0iNDAuNzkiIHN0eWxlPSJmaWxsOiNGRkZGRkY7IiB3aWR0aD0iMC42IiBoZWlnaHQ9IjAuNiIvPiYjeGE7PC9nPiYjeGE7PC9zdmc+;" parent="1" vertex="1">
          <mxGeometry x="230" y="41" width="67.88" height="40" as="geometry" />
        </mxCell>
        <mxCell id="rxB6j44p4bmtlhbTxSTX-6" value="" style="shape=image;verticalLabelPosition=bottom;labelBackgroundColor=#ffffff;verticalAlign=top;aspect=fixed;imageAspect=0;image=data:image/svg+xml,PHN2ZyB4bWxuczpjYz0iaHR0cDovL2NyZWF0aXZlY29tbW9ucy5vcmcvbnMjIiB4bWxuczpkYz0iaHR0cDovL3B1cmwub3JnL2RjL2VsZW1lbnRzLzEuMS8iIHhtbG5zOmlua3NjYXBlPSJodHRwOi8vd3d3Lmlua3NjYXBlLm9yZy9uYW1lc3BhY2VzL2lua3NjYXBlIiB4bWxuczpyZGY9Imh0dHA6Ly93d3cudzMub3JnLzE5OTkvMDIvMjItcmRmLXN5bnRheC1ucyMiIHhtbG5zOnNvZGlwb2RpPSJodHRwOi8vc29kaXBvZGkuc291cmNlZm9yZ2UubmV0L0RURC9zb2RpcG9kaS0wLmR0ZCIgeG1sbnM6c3ZnPSJodHRwOi8vd3d3LnczLm9yZy8yMDAwL3N2ZyIgeG1sbnM9Imh0dHA6Ly93d3cudzMub3JnLzIwMDAvc3ZnIiB4bWxuczp4bGluaz0iaHR0cDovL3d3dy53My5vcmcvMTk5OS94bGluayIgdmVyc2lvbj0iMS4xIiBpZD0ic3ZnNDc5MzAiIGlua3NjYXBlOnZlcnNpb249IjAuOTIuMyAoMjQwNTU0NiwgMjAxOC0wMy0xMSkiIHNvZGlwb2RpOmRvY25hbWU9Imh0bWwuc3ZnIiB4PSIwcHgiIHk9IjBweCIgdmlld0JveD0iMCAwIDI2Ljk5IDM1LjE1IiBzdHlsZT0iZW5hYmxlLWJhY2tncm91bmQ6bmV3IDAgMCAyNi45OSAzNS4xNTsiIHhtbDpzcGFjZT0icHJlc2VydmUiPiYjeGE7PHNvZGlwb2RpOm5hbWVkdmlldyBib3JkZXJjb2xvcj0iIzY2NjY2NiIgYm9yZGVyb3BhY2l0eT0iMSIgZml0LW1hcmdpbi1ib3R0b209IjAiIGZpdC1tYXJnaW4tbGVmdD0iMCIgZml0LW1hcmdpbi1yaWdodD0iMCIgZml0LW1hcmdpbi10b3A9IjAiIGdyaWR0b2xlcmFuY2U9IjEwIiBndWlkZXRvbGVyYW5jZT0iMTAiIGlkPSJuYW1lZHZpZXc0NzkzMiIgaW5rc2NhcGU6Y3VycmVudC1sYXllcj0ic3ZnNDc5MzAiIGlua3NjYXBlOmN4PSIxNy45OTQzODQiIGlua3NjYXBlOmN5PSIyMy40MzU4NSIgaW5rc2NhcGU6cGFnZW9wYWNpdHk9IjAiIGlua3NjYXBlOnBhZ2VzaGFkb3c9IjIiIGlua3NjYXBlOndpbmRvdy1oZWlnaHQ9IjEwMTciIGlua3NjYXBlOndpbmRvdy1tYXhpbWl6ZWQ9IjEiIGlua3NjYXBlOndpbmRvdy13aWR0aD0iMTkyMCIgaW5rc2NhcGU6d2luZG93LXg9Ii04IiBpbmtzY2FwZTp3aW5kb3cteT0iLTgiIGlua3NjYXBlOnpvb209IjExLjQwNjA4OSIgb2JqZWN0dG9sZXJhbmNlPSIxMCIgcGFnZWNvbG9yPSIjZmZmZmZmIiBzaG93Z3JpZD0iZmFsc2UiPiYjeGE7CTwvc29kaXBvZGk6bmFtZWR2aWV3PiYjeGE7PGcgaWQ9Imc0NzkyOCIgdHJhbnNmb3JtPSJ0cmFuc2xhdGUoLTEwLjkyODYsLTEwLjkzMTQzNCkiPiYjeGE7CTx0aXRsZSBpZD0idGl0bGU0Nzg2OSI+UGFnZS0xPC90aXRsZT4mI3hhOwk8ZyBpZD0iZ3JvdXA0MjI4LTEiIHRyYW5zZm9ybT0idHJhbnNsYXRlKDEwLjkyODYsLTEwLjkyODYpIj4mI3hhOwkJPHRpdGxlIGlkPSJ0aXRsZTQ3ODcxIj5IVE1MPC90aXRsZT4mI3hhOwkJPGcgaWQ9Imdyb3VwNDIyOS0yIj4mI3hhOwkJCTx0aXRsZSBpZD0idGl0bGU0Nzg3MyI+U2hlZXQuNDIyOTwvdGl0bGU+JiN4YTsJCQk8ZyBpZD0ic2hhcGU0MjMwLTMiPiYjeGE7CQkJCTx0aXRsZSBpZD0idGl0bGU0Nzg3NSI+U2hlZXQuNDIzMDwvdGl0bGU+JiN4YTsJCQkJPHBhdGggaWQ9InBhdGg0Nzg3NyIgaW5rc2NhcGU6Y29ubmVjdG9yLWN1cnZhdHVyZT0iMCIgc3R5bGU9ImZpbGw6I0U5RTlFMDsiIGQ9Ik0xOS4xNCwyMS44NkgwLjkyQzAuNDEsMjEuODYsMCwyMi4yNywwLDIzLjA3ICAgICAgdjMzLjMxYzAsMC4yMiwwLjQxLDAuNjMsMC45MiwwLjYzaDI1LjE1YzAuNTEsMCwwLjkyLTAuNDEsMC45Mi0wLjYzVjMwYzAtMC40My0wLjA2LTAuNTctMC4xNi0wLjY4bC03LjMtNy4zICAgICAgQzE5LjQyLDIxLjkyLDE5LjI4LDIxLjg2LDE5LjE0LDIxLjg2eiIvPiYjeGE7CQkJPC9nPiYjeGE7CQkJPGcgaWQ9InNoYXBlNDIzMS01IiB0cmFuc2Zvcm09InRyYW5zbGF0ZSgxOS40NTkxLC0yNy42MTkzKSI+JiN4YTsJCQkJPHRpdGxlIGlkPSJ0aXRsZTQ3ODgwIj5TaGVldC40MjMxPC90aXRsZT4mI3hhOwkJCQk8cGF0aCBpZD0icGF0aDQ3ODgyIiBpbmtzY2FwZTpjb25uZWN0b3ItY3VydmF0dXJlPSIwIiBzdHlsZT0iZmlsbDojRDlEN0NBOyIgZD0iTTAsNDkuNTd2Ny40NGg3LjQ0TDAsNDkuNTd6Ii8+JiN4YTsJCQk8L2c+JiN4YTsJCQk8ZyBpZD0ic2hhcGU0MjMyLTciPiYjeGE7CQkJCTx0aXRsZSBpZD0idGl0bGU0Nzg4NSI+U2hlZXQuNDIzMjwvdGl0bGU+JiN4YTsJCQkJPHBhdGggaWQ9InBhdGg0Nzg4NyIgaW5rc2NhcGU6Y29ubmVjdG9yLWN1cnZhdHVyZT0iMCIgc3R5bGU9ImZpbGw6I0VDNjYzMDsiIGQ9Ik0yNi4wNyw1Ny4wMUgwLjkyQzAuNDEsNTcuMDEsMCw1Ni42LDAsNTYuMDkgICAgICB2LTkuNzVoMjYuOTl2OS43NUMyNi45OSw1Ni42LDI2LjU4LDU3LjAxLDI2LjA3LDU3LjAxeiIvPiYjeGE7CQkJPC9nPiYjeGE7CQkJPGcgaWQ9Imdyb3VwNDIzMy05IiB0cmFuc2Zvcm09InRyYW5zbGF0ZSgyLjA2MjAzLC0xLjg4MzE0KSI+JiN4YTsJCQkJPHRpdGxlIGlkPSJ0aXRsZTQ3ODkwIj5TaGVldC40MjMzPC90aXRsZT4mI3hhOwkJCQk8ZyBpZD0ic2hhcGU0MjM0LTEwIj4mI3hhOwkJCQkJPHRpdGxlIGlkPSJ0aXRsZTQ3ODkyIj5TaGVldC40MjM0PC90aXRsZT4mI3hhOwkJCQkJPHBhdGggaWQ9InBhdGg0Nzg5NCIgaW5rc2NhcGU6Y29ubmVjdG9yLWN1cnZhdHVyZT0iMCIgc3R5bGU9ImZpbGw6I0ZGRkZGRjsiIGQ9Ik00LjgxLDUwLjY4djYuMzNIMy43OHYtMi44NUgxLjA1djIuODVIMCAgICAgICB2LTYuMzNoMS4wNXYyLjc4aDIuNzN2LTIuNzhINC44MXoiLz4mI3hhOwkJCQk8L2c+JiN4YTsJCQkJPGcgaWQ9InNoYXBlNDIzNS0xMiIgdHJhbnNmb3JtPSJ0cmFuc2xhdGUoNi4wNTkzKSI+JiN4YTsJCQkJCTx0aXRsZSBpZD0idGl0bGU0Nzg5NyI+U2hlZXQuNDIzNTwvdGl0bGU+JiN4YTsJCQkJCTxwYXRoIGlkPSJwYXRoNDc4OTkiIGlua3NjYXBlOmNvbm5lY3Rvci1jdXJ2YXR1cmU9IjAiIHN0eWxlPSJmaWxsOiNGRkZGRkY7IiBkPSJNNC44MSw1MC42OHYwLjcxSDIuOTN2NS42MkgxLjg5di01LjYySDAgICAgICAgdi0wLjcxSDQuODF6Ii8+JiN4YTsJCQkJPC9nPiYjeGE7CQkJCTxnIGlkPSJzaGFwZTQyMzYtMTQiIHRyYW5zZm9ybT0idHJhbnNsYXRlKDEyLjEwMDQpIj4mI3hhOwkJCQkJPHRpdGxlIGlkPSJ0aXRsZTQ3OTAyIj5TaGVldC40MjM2PC90aXRsZT4mI3hhOwkJCQkJPHBhdGggaWQ9InBhdGg0NzkwNCIgaW5rc2NhcGU6Y29ubmVjdG9yLWN1cnZhdHVyZT0iMCIgc3R5bGU9ImZpbGw6I0ZGRkZGRjsiIGQ9Ik00LjgsNTAuNjhoMS4wNHY2LjMzSDQuOHYtNC4zNWwtMS40MiwzLjUyICAgICAgIEgyLjQ3bC0xLjQyLTMuNTJ2NC4zNUgwdi02LjMzaDEuMDVsMS44OCw0LjMzTDQuOCw1MC42OHoiLz4mI3hhOwkJCQk8L2c+JiN4YTsJCQkJPGcgaWQ9InNoYXBlNDIzNy0xNiIgdHJhbnNmb3JtPSJ0cmFuc2xhdGUoMTkuNTMyNSkiPiYjeGE7CQkJCQk8dGl0bGUgaWQ9InRpdGxlNDc5MDciPlNoZWV0LjQyMzc8L3RpdGxlPiYjeGE7CQkJCQk8cGF0aCBpZD0icGF0aDQ3OTA5IiBpbmtzY2FwZTpjb25uZWN0b3ItY3VydmF0dXJlPSIwIiBzdHlsZT0iZmlsbDojRkZGRkZGOyIgZD0iTTEuMDUsNTAuNjh2NS41NWgyLjkxdjAuNzhIMHYtNi4zM0gxLjA1eiIvPiYjeGE7CQkJCTwvZz4mI3hhOwkJCTwvZz4mI3hhOwkJCTxnIGlkPSJncm91cDQyMzgtMTgiIHRyYW5zZm9ybT0idHJhbnNsYXRlKDUuNTg3ODksLTE2LjMyMDUpIj4mI3hhOwkJCQk8dGl0bGUgaWQ9InRpdGxlNDc5MTMiPlNoZWV0LjQyMzg8L3RpdGxlPiYjeGE7CQkJCTxnIGlkPSJzaGFwZTQyMzktMTkiPiYjeGE7CQkJCQk8dGl0bGUgaWQ9InRpdGxlNDc5MTUiPlNoZWV0LjQyMzk8L3RpdGxlPiYjeGE7CQkJCQk8cGF0aCBpZD0icGF0aDQ3OTE3IiBpbmtzY2FwZTpjb25uZWN0b3ItY3VydmF0dXJlPSIwIiBzdHlsZT0iZmlsbDojRUM2NjMwOyIgZD0iTTQuOSw0OC40Yy0wLjI1LTAuMjQtMC42NC0wLjI0LTAuODksMCAgICAgICBsLTMuNzYsMy43N0MwLDUyLjQyLDAsNTIuODEsMC4yNSw1My4wNmwzLjc2LDMuNzdjMC4xMiwwLjEyLDAuMjgsMC4xOCwwLjQ1LDAuMThjMC4xNiwwLDAuMzItMC4wNiwwLjQ0LTAuMTggICAgICAgYzAuMjQtMC4yNSwwLjI0LTAuNjUsMC0wLjg5bC0zLjMyLTMuMzJsMy4zMi0zLjMzQzUuMTQsNDkuMDUsNS4xNCw0OC42NSw0LjksNDguNHoiLz4mI3hhOwkJCQk8L2c+JiN4YTsJCQkJPGcgaWQ9InNoYXBlNDI0MC0yMSIgdHJhbnNmb3JtPSJ0cmFuc2xhdGUoMTEuMjk4OCkiPiYjeGE7CQkJCQk8dGl0bGUgaWQ9InRpdGxlNDc5MjAiPlNoZWV0LjQyNDA8L3RpdGxlPiYjeGE7CQkJCQk8cGF0aCBpZD0icGF0aDQ3OTIyIiBpbmtzY2FwZTpjb25uZWN0b3ItY3VydmF0dXJlPSIwIiBzdHlsZT0iZmlsbDojRUM2NjMwOyIgZD0iTTQuOSw1Mi4xN0wxLjEzLDQ4LjQgICAgICAgYy0wLjI0LTAuMjQtMC42NC0wLjI0LTAuODgsMEMwLDQ4LjY1LDAsNDkuMDUsMC4yNSw0OS4yOWwzLjMyLDMuMzNsLTMuMzIsMy4zMkMwLDU2LjE4LDAsNTYuNTgsMC4yNSw1Ni44MyAgICAgICBjMC4xMiwwLjEyLDAuMjgsMC4xOCwwLjQ0LDAuMThzMC4zMi0wLjA2LDAuNDQtMC4xOGwzLjc3LTMuNzdDNS4xNCw1Mi44MSw1LjE0LDUyLjQyLDQuOSw1Mi4xN3oiLz4mI3hhOwkJCQk8L2c+JiN4YTsJCQk8L2c+JiN4YTsJCTwvZz4mI3hhOwk8L2c+JiN4YTs8L2c+JiN4YTs8L3N2Zz4=;" parent="1" vertex="1">
          <mxGeometry x="90" y="170" width="27" height="35" as="geometry" />
        </mxCell>
        <mxCell id="rxB6j44p4bmtlhbTxSTX-7" value="" style="shape=image;verticalLabelPosition=bottom;labelBackgroundColor=#ffffff;verticalAlign=top;aspect=fixed;imageAspect=0;image=data:image/svg+xml,PHN2ZyB4bWxuczpjYz0iaHR0cDovL2NyZWF0aXZlY29tbW9ucy5vcmcvbnMjIiB4bWxuczpkYz0iaHR0cDovL3B1cmwub3JnL2RjL2VsZW1lbnRzLzEuMS8iIHhtbG5zOmlua3NjYXBlPSJodHRwOi8vd3d3Lmlua3NjYXBlLm9yZy9uYW1lc3BhY2VzL2lua3NjYXBlIiB4bWxuczpyZGY9Imh0dHA6Ly93d3cudzMub3JnLzE5OTkvMDIvMjItcmRmLXN5bnRheC1ucyMiIHhtbG5zOnNvZGlwb2RpPSJodHRwOi8vc29kaXBvZGkuc291cmNlZm9yZ2UubmV0L0RURC9zb2RpcG9kaS0wLmR0ZCIgeG1sbnM6c3ZnPSJodHRwOi8vd3d3LnczLm9yZy8yMDAwL3N2ZyIgeG1sbnM9Imh0dHA6Ly93d3cudzMub3JnLzIwMDAvc3ZnIiB4bWxuczp4bGluaz0iaHR0cDovL3d3dy53My5vcmcvMTk5OS94bGluayIgdmVyc2lvbj0iMS4xIiBpZD0ic3ZnMzg0NjYiIGlua3NjYXBlOnZlcnNpb249IjAuOTIuMyAoMjQwNTU0NiwgMjAxOC0wMy0xMSkiIHNvZGlwb2RpOmRvY25hbWU9ImNzcy5zdmciIHg9IjBweCIgeT0iMHB4IiB2aWV3Qm94PSIwIDAgMjYuODUgMzUuMzIiIHN0eWxlPSJlbmFibGUtYmFja2dyb3VuZDpuZXcgMCAwIDI2Ljg1IDM1LjMyOyIgeG1sOnNwYWNlPSJwcmVzZXJ2ZSI+JiN4YTs8c29kaXBvZGk6bmFtZWR2aWV3IGJvcmRlcmNvbG9yPSIjNjY2NjY2IiBib3JkZXJvcGFjaXR5PSIxIiBmaXQtbWFyZ2luLWJvdHRvbT0iMCIgZml0LW1hcmdpbi1sZWZ0PSIwIiBmaXQtbWFyZ2luLXJpZ2h0PSIwIiBmaXQtbWFyZ2luLXRvcD0iMCIgZ3JpZHRvbGVyYW5jZT0iMTAiIGd1aWRldG9sZXJhbmNlPSIxMCIgaWQ9Im5hbWVkdmlldzM4NDY4IiBpbmtzY2FwZTpjdXJyZW50LWxheWVyPSJzdmczODQ2NiIgaW5rc2NhcGU6Y3g9IjE3Ljg5Nzg4NCIgaW5rc2NhcGU6Y3k9IjIzLjU0OTc1NiIgaW5rc2NhcGU6cGFnZW9wYWNpdHk9IjAiIGlua3NjYXBlOnBhZ2VzaGFkb3c9IjIiIGlua3NjYXBlOndpbmRvdy1oZWlnaHQ9IjEwMTciIGlua3NjYXBlOndpbmRvdy1tYXhpbWl6ZWQ9IjEiIGlua3NjYXBlOndpbmRvdy13aWR0aD0iMTkyMCIgaW5rc2NhcGU6d2luZG93LXg9Ii04IiBpbmtzY2FwZTp3aW5kb3cteT0iLTgiIGlua3NjYXBlOnpvb209IjExLjM3MjMzNiIgb2JqZWN0dG9sZXJhbmNlPSIxMCIgcGFnZWNvbG9yPSIjZmZmZmZmIiBzaG93Z3JpZD0iZmFsc2UiPiYjeGE7CTwvc29kaXBvZGk6bmFtZWR2aWV3PiYjeGE7PGcgaWQ9ImczODQ2NCIgdHJhbnNmb3JtPSJ0cmFuc2xhdGUoLTEwLjkyODYsLTEwLjkzMTQpIj4mI3hhOwk8dGl0bGUgaWQ9InRpdGxlMzg0MTAiPlBhZ2UtMTwvdGl0bGU+JiN4YTsJPGcgaWQ9Imdyb3VwNDI3OC0xIiB0cmFuc2Zvcm09InRyYW5zbGF0ZSgxMC45Mjg2LC0xMC45Mjg2KSI+JiN4YTsJCTx0aXRsZSBpZD0idGl0bGUzODQxMiI+Q1NTLjI4ODwvdGl0bGU+JiN4YTsJCTxnIGlkPSJncm91cDQyNzktMiI+JiN4YTsJCQk8dGl0bGUgaWQ9InRpdGxlMzg0MTQiPlNoZWV0LjQyNzk8L3RpdGxlPiYjeGE7CQkJPGcgaWQ9InNoYXBlNDI4MC0zIj4mI3hhOwkJCQk8dGl0bGUgaWQ9InRpdGxlMzg0MTYiPlNoZWV0LjQyODA8L3RpdGxlPiYjeGE7CQkJCTxwYXRoIGlkPSJwYXRoMzg0MTgiIGlua3NjYXBlOmNvbm5lY3Rvci1jdXJ2YXR1cmU9IjAiIHN0eWxlPSJmaWxsOiNFOUU5RTA7IiBkPSJNMTkuMDMsMjEuODZIMC45MWMtMC41LDAtMC45MSwwLjQxLTAuOTEsMS4yMSAgICAgIHYzMy40OGMwLDAuMjIsMC40MSwwLjYzLDAuOTEsMC42M2gyNS4wMmMwLjUxLDAsMC45Mi0wLjQxLDAuOTItMC42M1YzMC4wNGMwLTAuNDQtMC4wNi0wLjU4LTAuMTYtMC42OGwtNy4yNy03LjM0ICAgICAgQzE5LjMyLDIxLjkyLDE5LjE4LDIxLjg2LDE5LjAzLDIxLjg2eiIvPiYjeGE7CQkJPC9nPiYjeGE7CQkJPGcgaWQ9InNoYXBlNDI4MS01IiB0cmFuc2Zvcm09InRyYW5zbGF0ZSgxOS4zNTQ3LC0yNy43NTIzKSI+JiN4YTsJCQkJPHRpdGxlIGlkPSJ0aXRsZTM4NDIxIj5TaGVldC40MjgxPC90aXRsZT4mI3hhOwkJCQk8cGF0aCBpZD0icGF0aDM4NDIzIiBpbmtzY2FwZTpjb25uZWN0b3ItY3VydmF0dXJlPSIwIiBzdHlsZT0iZmlsbDojRDlEN0NBOyIgZD0iTTAsNDkuN3Y3LjQ4aDcuNEwwLDQ5Ljd6Ii8+JiN4YTsJCQk8L2c+JiN4YTsJCQk8ZyBpZD0ic2hhcGU0MjgyLTciPiYjeGE7CQkJCTx0aXRsZSBpZD0idGl0bGUzODQyNiI+U2hlZXQuNDI4MjwvdGl0bGU+JiN4YTsJCQkJPHBhdGggaWQ9InBhdGgzODQyOCIgaW5rc2NhcGU6Y29ubmVjdG9yLWN1cnZhdHVyZT0iMCIgc3R5bGU9ImZpbGw6IzIwNTg2NzsiIGQ9Ik0yNS45Myw1Ny4xOEgwLjkxYy0wLjUsMC0wLjkxLTAuNDEtMC45MS0wLjkyICAgICAgdi05LjhoMjYuODV2OS44QzI2Ljg1LDU2Ljc3LDI2LjQ0LDU3LjE4LDI1LjkzLDU3LjE4eiIvPiYjeGE7CQkJPC9nPiYjeGE7CQkJPGcgaWQ9Imdyb3VwNDI4My05IiB0cmFuc2Zvcm09InRyYW5zbGF0ZSg2LjI5NDA0LC0xLjg0OTMxKSI+JiN4YTsJCQkJPHRpdGxlIGlkPSJ0aXRsZTM4NDMxIj5TaGVldC40MjgzPC90aXRsZT4mI3hhOwkJCQk8ZyBpZD0ic2hhcGU0Mjg0LTEwIj4mI3hhOwkJCQkJPHRpdGxlIGlkPSJ0aXRsZTM4NDMzIj5TaGVldC40Mjg0PC90aXRsZT4mI3hhOwkJCQkJPHBhdGggaWQ9InBhdGgzODQzNSIgaW5rc2NhcGU6Y29ubmVjdG9yLWN1cnZhdHVyZT0iMCIgc3R5bGU9ImZpbGw6I0ZGRkZGRjsiIGQ9Ik00LjM3LDU2LjQ5Yy0wLjIzLDAuMjMtMC41LDAuNC0wLjc5LDAuNTIgICAgICAgYy0wLjMsMC4xMS0wLjYyLDAuMTctMC45NiwwLjE3Yy0wLjM4LDAtMC43Mi0wLjA3LTEuMDQtMC4yMWMtMC4zMS0wLjE0LTAuNTktMC4zNC0wLjgyLTAuNjFjLTAuMjQtMC4yNy0wLjQzLTAuNjEtMC41Ni0xLjAyICAgICAgIFMwLDU0LjQ2LDAsNTMuOTNjMC0wLjU0LDAuMDctMS4wMSwwLjItMS40MWMwLjEzLTAuNDEsMC4zMi0wLjc1LDAuNTYtMS4wMmMwLjIzLTAuMjcsMC41MS0wLjQ3LDAuODMtMC42MXMwLjY2LTAuMjEsMS4wMy0wLjIxICAgICAgIGMwLjM0LDAsMC42NiwwLjA1LDAuOTYsMC4xN2MwLjI5LDAuMTEsMC41NiwwLjI5LDAuNzksMC41MkwzLjY2LDUyYy0wLjE0LTAuMTYtMC4zLTAuMjgtMC40Ny0wLjM2ICAgICAgIGMtMC4xOC0wLjA3LTAuMzYtMC4xMS0wLjU0LTAuMTFjLTAuMjIsMC0wLjQyLDAuMDQtMC42MSwwLjEyYy0wLjE5LDAuMDgtMC4zNiwwLjIyLTAuNTEsMC40MXMtMC4yNywwLjQ0LTAuMzUsMC43NSAgICAgICBjLTAuMDksMC4zLTAuMTMsMC42Ny0wLjE0LDEuMTJjMC4wMSwwLjQzLDAuMDUsMC44LDAuMTMsMS4xYzAuMDksMC4zMSwwLjIsMC41NSwwLjM0LDAuNzVjMC4xNSwwLjE5LDAuMzEsMC4zMywwLjUsMC40MiAgICAgICBjMC4xOCwwLjA5LDAuMzgsMC4xMywwLjU4LDAuMTNjMC4yMSwwLDAuNC0wLjAzLDAuNTgtMC4xMWMwLjE4LTAuMDcsMC4zNC0wLjE5LDAuNDktMC4zNkw0LjM3LDU2LjQ5eiIvPiYjeGE7CQkJCTwvZz4mI3hhOwkJCQk8ZyBpZD0ic2hhcGU0Mjg1LTEyIiB0cmFuc2Zvcm09InRyYW5zbGF0ZSg1Ljc0MzM2LC0wLjAwODgzMDI3KSI+JiN4YTsJCQkJCTx0aXRsZSBpZD0idGl0bGUzODQzOCI+U2hlZXQuNDI4NTwvdGl0bGU+JiN4YTsJCQkJCTxwYXRoIGlkPSJwYXRoMzg0NDAiIGlua3NjYXBlOmNvbm5lY3Rvci1jdXJ2YXR1cmU9IjAiIHN0eWxlPSJmaWxsOiNGRkZGRkY7IiBkPSJNMy42NSw1NS40YzAsMC4yMy0wLjA0LDAuNDUtMC4xNCwwLjY3ICAgICAgIGMtMC4wOSwwLjIyLTAuMjIsMC40MS0wLjM5LDAuNTdzLTAuMzgsMC4yOS0wLjY0LDAuMzljLTAuMjUsMC4xLTAuNTMsMC4xNS0wLjg1LDAuMTVjLTAuMTQsMC0wLjI4LTAuMDEtMC40Mi0wLjAyICAgICAgIGMtMC4xNS0wLjAyLTAuMjktMC4wNC0wLjQ0LTAuMDhDMC42Miw1Ny4wNSwwLjQ4LDU3LDAuMzUsNTYuOTRDMC4yMSw1Ni44OCwwLjEsNTYuODEsMCw1Ni43MmwwLjE4LTAuNzQgICAgICAgYzAuMDgsMC4wNSwwLjE4LDAuMDksMC4zLDAuMTNjMC4xMiwwLjA1LDAuMjUsMC4wOSwwLjM4LDAuMTJjMC4xMywwLjA0LDAuMjYsMC4wNywwLjM5LDAuMDljMC4xNCwwLjAzLDAuMjYsMC4wNCwwLjM3LDAuMDQgICAgICAgYzAuMzUsMCwwLjYxLTAuMDgsMC44LTAuMjVjMC4xOC0wLjE2LDAuMjgtMC40LDAuMjgtMC43M2MwLTAuMTktMC4wNy0wLjM2LTAuMi0wLjVjLTAuMTMtMC4xMy0wLjI5LTAuMjYtMC40OS0wLjM3ICAgICAgIGMtMC4yLTAuMTEtMC40MS0wLjIyLTAuNjQtMC4zNGMtMC4yMi0wLjExLTAuNDQtMC4yNC0wLjY0LTAuMzljLTAuMi0wLjE2LTAuMzYtMC4zNC0wLjQ5LTAuNTRjLTAuMTMtMC4yMS0wLjItMC40Ny0wLjItMC43OCAgICAgICBjMC0wLjI4LDAuMDUtMC41MywwLjE2LTAuNzVjMC4xLTAuMjIsMC4yNC0wLjQsMC40MS0wLjU1YzAuMTctMC4xNiwwLjM4LTAuMjcsMC42MS0wLjM1YzAuMjMtMC4wOCwwLjQ3LTAuMTIsMC43My0wLjEyICAgICAgIHMwLjUyLDAuMDIsMC43OSwwLjA3UzMuMjIsNTAuODksMy4zOSw1MWMtMC4wNCwwLjA3LTAuMDgsMC4xNS0wLjEyLDAuMjRjLTAuMDUsMC4wOS0wLjA5LDAuMTctMC4xMywwLjI1ICAgICAgIGMtMC4wNCwwLjA4LTAuMDcsMC4xNC0wLjEsMC4yYy0wLjAzLDAuMDUtMC4wNSwwLjA4LTAuMDUsMC4wOGMtMC4wNC0wLjAxLTAuMDctMC4wNC0wLjEyLTAuMDdjLTAuMDQtMC4wMy0wLjEtMC4wNS0wLjE4LTAuMDggICAgICAgYy0wLjA4LTAuMDMtMC4xOS0wLjA1LTAuMzItMC4wNmMtMC4xMy0wLjAyLTAuMy0wLjAxLTAuNSwwLjAxYy0wLjEyLDAuMDEtMC4yMiwwLjA0LTAuMzMsMC4wOWMtMC4xLDAuMDYtMC4xOSwwLjEzLTAuMjcsMC4yMSAgICAgICBjLTAuMDgsMC4wOC0wLjE0LDAuMTctMC4xOSwwLjI3Yy0wLjA0LDAuMS0wLjA3LDAuMi0wLjA3LDAuMjljMCwwLjIzLDAuMDcsMC40MSwwLjIsMC41NWMwLjEzLDAuMTUsMC4yOSwwLjI3LDAuNDksMC4zNyAgICAgICBjMC4xOSwwLjExLDAuNCwwLjIxLDAuNjMsMC4zMmMwLjIzLDAuMSwwLjQ0LDAuMjIsMC42NCwwLjM2YzAuMTksMC4xNCwwLjM1LDAuMzMsMC40OSwwLjU0QzMuNTksNTQuNzksMy42NSw1NS4wNiwzLjY1LDU1LjR6Ii8+JiN4YTsJCQkJPC9nPiYjeGE7CQkJCTxnIGlkPSJzaGFwZTQyODYtMTQiIHRyYW5zZm9ybT0idHJhbnNsYXRlKDEwLjM2OTgsLTAuMDA4ODMwMjcpIj4mI3hhOwkJCQkJPHRpdGxlIGlkPSJ0aXRsZTM4NDQzIj5TaGVldC40Mjg2PC90aXRsZT4mI3hhOwkJCQkJPHBhdGggaWQ9InBhdGgzODQ0NSIgaW5rc2NhcGU6Y29ubmVjdG9yLWN1cnZhdHVyZT0iMCIgc3R5bGU9ImZpbGw6I0ZGRkZGRjsiIGQ9Ik0zLjY1LDU1LjRjMCwwLjIzLTAuMDQsMC40NS0wLjE0LDAuNjcgICAgICAgYy0wLjA5LDAuMjItMC4yMiwwLjQxLTAuMzksMC41N3MtMC4zOCwwLjI5LTAuNjQsMC4zOWMtMC4yNSwwLjEtMC41MywwLjE1LTAuODUsMC4xNWMtMC4xNCwwLTAuMjgtMC4wMS0wLjQyLTAuMDIgICAgICAgYy0wLjE1LTAuMDItMC4yOS0wLjA0LTAuNDQtMC4wOEMwLjYyLDU3LjA1LDAuNDgsNTcsMC4zNSw1Ni45NEMwLjIxLDU2Ljg4LDAuMSw1Ni44MSwwLDU2LjcybDAuMTgtMC43NCAgICAgICBjMC4wOCwwLjA1LDAuMTgsMC4wOSwwLjMsMC4xM2MwLjEyLDAuMDUsMC4yNSwwLjA5LDAuMzgsMC4xMmMwLjEzLDAuMDQsMC4yNiwwLjA3LDAuMzksMC4wOWMwLjE0LDAuMDMsMC4yNiwwLjA0LDAuMzcsMC4wNCAgICAgICBjMC4zNSwwLDAuNjEtMC4wOCwwLjgtMC4yNWMwLjE4LTAuMTYsMC4yOC0wLjQsMC4yOC0wLjczYzAtMC4xOS0wLjA3LTAuMzYtMC4yLTAuNWMtMC4xMy0wLjEzLTAuMjktMC4yNi0wLjQ5LTAuMzcgICAgICAgYy0wLjItMC4xMS0wLjQxLTAuMjItMC42NC0wLjM0Yy0wLjIyLTAuMTEtMC40NC0wLjI0LTAuNjQtMC4zOWMtMC4yLTAuMTYtMC4zNi0wLjM0LTAuNDktMC41NGMtMC4xMy0wLjIxLTAuMi0wLjQ3LTAuMi0wLjc4ICAgICAgIGMwLTAuMjgsMC4wNS0wLjUzLDAuMTYtMC43NWMwLjEtMC4yMiwwLjI0LTAuNCwwLjQxLTAuNTVjMC4xNy0wLjE2LDAuMzgtMC4yNywwLjYxLTAuMzVjMC4yMy0wLjA4LDAuNDctMC4xMiwwLjczLTAuMTIgICAgICAgczAuNTIsMC4wMiwwLjc5LDAuMDdTMy4yMiw1MC44OSwzLjM5LDUxYy0wLjA0LDAuMDctMC4wOCwwLjE1LTAuMTIsMC4yNGMtMC4wNSwwLjA5LTAuMDksMC4xNy0wLjEzLDAuMjUgICAgICAgYy0wLjA0LDAuMDgtMC4wNywwLjE0LTAuMSwwLjJjLTAuMDMsMC4wNS0wLjA1LDAuMDgtMC4wNSwwLjA4Yy0wLjA0LTAuMDEtMC4wNy0wLjA0LTAuMTItMC4wN2MtMC4wNC0wLjAzLTAuMS0wLjA1LTAuMTgtMC4wOCAgICAgICBjLTAuMDgtMC4wMy0wLjE5LTAuMDUtMC4zMi0wLjA2Yy0wLjEzLTAuMDItMC4zLTAuMDEtMC41LDAuMDFjLTAuMTIsMC4wMS0wLjIyLDAuMDQtMC4zMywwLjA5Yy0wLjEsMC4wNi0wLjE5LDAuMTMtMC4yNywwLjIxICAgICAgIGMtMC4wOCwwLjA4LTAuMTQsMC4xNy0wLjE5LDAuMjdjLTAuMDQsMC4xLTAuMDcsMC4yLTAuMDcsMC4yOWMwLDAuMjMsMC4wNywwLjQxLDAuMiwwLjU1YzAuMTMsMC4xNSwwLjI5LDAuMjcsMC40OSwwLjM3ICAgICAgIGMwLjE5LDAuMTEsMC40LDAuMjEsMC42MywwLjMyYzAuMjMsMC4xLDAuNDQsMC4yMiwwLjY0LDAuMzZjMC4xOSwwLjE0LDAuMzUsMC4zMywwLjQ5LDAuNTRDMy41OSw1NC43OSwzLjY1LDU1LjA2LDMuNjUsNTUuNHoiLz4mI3hhOwkJCQk8L2c+JiN4YTsJCQk8L2c+JiN4YTsJCQk8ZyBpZD0iZ3JvdXA0Mjg3LTE2IiB0cmFuc2Zvcm09InRyYW5zbGF0ZSg0Ljk5NDc3LC0xNS4xMzc2KSI+JiN4YTsJCQkJPHRpdGxlIGlkPSJ0aXRsZTM4NDQ5Ij5TaGVldC40Mjg3PC90aXRsZT4mI3hhOwkJCQk8ZyBpZD0ic2hhcGU0Mjg4LTE3Ij4mI3hhOwkJCQkJPHRpdGxlIGlkPSJ0aXRsZTM4NDUxIj5TaGVldC40Mjg4PC90aXRsZT4mI3hhOwkJCQkJPHBhdGggaWQ9InBhdGgzODQ1MyIgaW5rc2NhcGU6Y29ubmVjdG9yLWN1cnZhdHVyZT0iMCIgc3R5bGU9ImZpbGw6IzIwNTg2NzsiIGQ9Ik0zLjEyLDQ4Ljk4di0yLjUyYzAtMC4zNSwwLjI4LTAuNjMsMC42My0wLjYzICAgICAgIGMwLjM0LDAsMC42Mi0wLjI5LDAuNjItMC42NGMwLTAuMzQtMC4yOC0wLjYzLTAuNjItMC42M2MtMS4wNCwwLTEuODgsMC44NS0xLjg4LDEuOXYyLjUyYzAsMC42OS0wLjU2LDEuMjYtMS4yNSwxLjI2ICAgICAgIEMwLjI4LDUwLjI0LDAsNTAuNTIsMCw1MC44N2MwLDAuMzUsMC4yOCwwLjYzLDAuNjIsMC42M2MwLjY5LDAsMS4yNSwwLjU3LDEuMjUsMS4yNnYyLjUzYzAsMS4wNCwwLjg0LDEuODksMS44OCwxLjg5ICAgICAgIGMwLjM0LDAsMC42Mi0wLjI4LDAuNjItMC42M2MwLTAuMzUtMC4yOC0wLjYzLTAuNjItMC42M2MtMC4zNSwwLTAuNjMtMC4yOS0wLjYzLTAuNjN2LTIuNTNjMC0wLjc1LTAuMzQtMS40My0wLjg2LTEuODkgICAgICAgQzIuNzgsNTAuNDEsMy4xMiw0OS43NCwzLjEyLDQ4Ljk4eiIvPiYjeGE7CQkJCTwvZz4mI3hhOwkJCQk8ZyBpZD0ic2hhcGU0Mjg5LTE5IiB0cmFuc2Zvcm09InRyYW5zbGF0ZSgxMS44NjI2KSI+JiN4YTsJCQkJCTx0aXRsZSBpZD0idGl0bGUzODQ1NiI+U2hlZXQuNDI4OTwvdGl0bGU+JiN4YTsJCQkJCTxwYXRoIGlkPSJwYXRoMzg0NTgiIGlua3NjYXBlOmNvbm5lY3Rvci1jdXJ2YXR1cmU9IjAiIHN0eWxlPSJmaWxsOiMyMDU4Njc7IiBkPSJNMy43NSw1MC4yNGMtMC42OSwwLTEuMjUtMC41Ny0xLjI1LTEuMjYgICAgICAgdi0yLjUyYzAtMS4wNS0wLjg0LTEuOS0xLjg4LTEuOUMwLjI4LDQ0LjU2LDAsNDQuODUsMCw0NS4xOWMwLDAuMzUsMC4yOCwwLjY0LDAuNjIsMC42NGMwLjM1LDAsMC42MywwLjI4LDAuNjMsMC42M3YyLjUyICAgICAgIGMwLDAuNzYsMC4zNCwxLjQzLDAuODYsMS44OWMtMC41MiwwLjQ2LTAuODYsMS4xNC0wLjg2LDEuODl2Mi41M2MwLDAuMzQtMC4yOCwwLjYzLTAuNjMsMC42M0MwLjI4LDU1LjkyLDAsNTYuMiwwLDU2LjU1ICAgICAgIGMwLDAuMzUsMC4yOCwwLjYzLDAuNjIsMC42M2MxLjA0LDAsMS44OC0wLjg1LDEuODgtMS44OXYtMi41M2MwLTAuNjksMC41Ni0xLjI2LDEuMjUtMS4yNmMwLjM0LDAsMC42Mi0wLjI4LDAuNjItMC42MyAgICAgICBDNC4zNyw1MC41Miw0LjA5LDUwLjI0LDMuNzUsNTAuMjR6Ii8+JiN4YTsJCQkJPC9nPiYjeGE7CQkJPC9nPiYjeGE7CQk8L2c+JiN4YTsJPC9nPiYjeGE7PC9nPiYjeGE7PC9zdmc+;" parent="1" vertex="1">
          <mxGeometry x="220" y="170" width="27" height="35" as="geometry" />
        </mxCell>
        <mxCell id="rxB6j44p4bmtlhbTxSTX-8" value="" style="shape=image;verticalLabelPosition=bottom;labelBackgroundColor=#ffffff;verticalAlign=top;aspect=fixed;imageAspect=0;image=data:image/svg+xml,PHN2ZyB4bWxuczpjYz0iaHR0cDovL2NyZWF0aXZlY29tbW9ucy5vcmcvbnMjIiB4bWxuczpkYz0iaHR0cDovL3B1cmwub3JnL2RjL2VsZW1lbnRzLzEuMS8iIHhtbG5zOmlua3NjYXBlPSJodHRwOi8vd3d3Lmlua3NjYXBlLm9yZy9uYW1lc3BhY2VzL2lua3NjYXBlIiB4bWxuczpyZGY9Imh0dHA6Ly93d3cudzMub3JnLzE5OTkvMDIvMjItcmRmLXN5bnRheC1ucyMiIHhtbG5zOnNvZGlwb2RpPSJodHRwOi8vc29kaXBvZGkuc291cmNlZm9yZ2UubmV0L0RURC9zb2RpcG9kaS0wLmR0ZCIgeG1sbnM6c3ZnPSJodHRwOi8vd3d3LnczLm9yZy8yMDAwL3N2ZyIgeG1sbnM9Imh0dHA6Ly93d3cudzMub3JnLzIwMDAvc3ZnIiB4bWxuczp4bGluaz0iaHR0cDovL3d3dy53My5vcmcvMTk5OS94bGluayIgdmVyc2lvbj0iMS4xIiBpZD0ic3ZnNDkxMzUiIGlua3NjYXBlOnZlcnNpb249IjAuOTIuMyAoMjQwNTU0NiwgMjAxOC0wMy0xMSkiIHNvZGlwb2RpOmRvY25hbWU9Impzb24uc3ZnIiB4PSIwcHgiIHk9IjBweCIgdmlld0JveD0iMCAwIDI2LjcyIDM1LjE1IiBzdHlsZT0iZW5hYmxlLWJhY2tncm91bmQ6bmV3IDAgMCAyNi43MiAzNS4xNTsiIHhtbDpzcGFjZT0icHJlc2VydmUiPiYjeGE7PHNvZGlwb2RpOm5hbWVkdmlldyBib3JkZXJjb2xvcj0iIzY2NjY2NiIgYm9yZGVyb3BhY2l0eT0iMSIgZml0LW1hcmdpbi1ib3R0b209IjAiIGZpdC1tYXJnaW4tbGVmdD0iMCIgZml0LW1hcmdpbi1yaWdodD0iMCIgZml0LW1hcmdpbi10b3A9IjAiIGdyaWR0b2xlcmFuY2U9IjEwIiBndWlkZXRvbGVyYW5jZT0iMTAiIGlkPSJuYW1lZHZpZXc0OTEzNyIgaW5rc2NhcGU6Y3VycmVudC1sYXllcj0ic3ZnNDkxMzUiIGlua3NjYXBlOmN4PSIxNy44MTIxNTYiIGlua3NjYXBlOmN5PSIyMy40MzU4OTYiIGlua3NjYXBlOnBhZ2VvcGFjaXR5PSIwIiBpbmtzY2FwZTpwYWdlc2hhZG93PSIyIiBpbmtzY2FwZTp3aW5kb3ctaGVpZ2h0PSIxMDE3IiBpbmtzY2FwZTp3aW5kb3ctbWF4aW1pemVkPSIxIiBpbmtzY2FwZTp3aW5kb3ctd2lkdGg9IjE5MjAiIGlua3NjYXBlOndpbmRvdy14PSItOCIgaW5rc2NhcGU6d2luZG93LXk9Ii04IiBpbmtzY2FwZTp6b29tPSIxMS40MDYwODkiIG9iamVjdHRvbGVyYW5jZT0iMTAiIHBhZ2Vjb2xvcj0iI2ZmZmZmZiIgc2hvd2dyaWQ9ImZhbHNlIj4mI3hhOwk8L3NvZGlwb2RpOm5hbWVkdmlldz4mI3hhOzxnIGlkPSJnNDkxMzMiIHRyYW5zZm9ybT0idHJhbnNsYXRlKC0xMC45Mjg2LC0xMC45MzE0KSI+JiN4YTsJPHRpdGxlIGlkPSJ0aXRsZTQ5MDYxIj5QYWdlLTE8L3RpdGxlPiYjeGE7CTxnIGlkPSJncm91cDM5ODgtMSIgdHJhbnNmb3JtPSJ0cmFuc2xhdGUoMTAuOTI4NiwtMTAuOTI4NikiPiYjeGE7CQk8dGl0bGUgaWQ9InRpdGxlNDkwNjMiPkpTT04uMjY2PC90aXRsZT4mI3hhOwkJPGcgaWQ9Imdyb3VwMzk4OS0yIj4mI3hhOwkJCTx0aXRsZSBpZD0idGl0bGU0OTA2NSI+SlM8L3RpdGxlPiYjeGE7CQkJPGcgaWQ9Imdyb3VwMzk5MC0zIj4mI3hhOwkJCQk8dGl0bGUgaWQ9InRpdGxlNDkwNjciPlNoZWV0LjM5OTA8L3RpdGxlPiYjeGE7CQkJCTxnIGlkPSJzaGFwZTM5OTEtNCI+JiN4YTsJCQkJCTx0aXRsZSBpZD0idGl0bGU0OTA2OSI+U2hlZXQuMzk5MTwvdGl0bGU+JiN4YTsJCQkJCTxwYXRoIGlkPSJwYXRoNDkwNzEiIGlua3NjYXBlOmNvbm5lY3Rvci1jdXJ2YXR1cmU9IjAiIHN0eWxlPSJmaWxsOiNFOUU5RTA7IiBkPSJNMTguOTQsMjEuODZIMC45MWMtMC41LDAtMC45MSwwLjQxLTAuOTEsMS4yMSAgICAgICB2MzMuMzFjMCwwLjIyLDAuNDEsMC42MywwLjkxLDAuNjNoMjQuOWMwLjUsMCwwLjkxLTAuNDEsMC45MS0wLjYzVjMwYzAtMC40My0wLjA2LTAuNTctMC4xNi0wLjY4bC03LjIzLTcuMyAgICAgICBDMTkuMjMsMjEuOTIsMTkuMDksMjEuODYsMTguOTQsMjEuODZ6Ii8+JiN4YTsJCQkJPC9nPiYjeGE7CQkJCTxnIGlkPSJzaGFwZTM5OTItNiIgdHJhbnNmb3JtPSJ0cmFuc2xhdGUoMTkuMjYyLC0yNy42MTkzKSI+JiN4YTsJCQkJCTx0aXRsZSBpZD0idGl0bGU0OTA3NCI+U2hlZXQuMzk5MjwvdGl0bGU+JiN4YTsJCQkJCTxwYXRoIGlkPSJwYXRoNDkwNzYiIGlua3NjYXBlOmNvbm5lY3Rvci1jdXJ2YXR1cmU9IjAiIHN0eWxlPSJmaWxsOiNEOUQ3Q0E7IiBkPSJNMCw0OS41N3Y3LjQ0aDcuMzZMMCw0OS41N3oiLz4mI3hhOwkJCQk8L2c+JiN4YTsJCQkJPGcgaWQ9InNoYXBlMzk5My04Ij4mI3hhOwkJCQkJPHRpdGxlIGlkPSJ0aXRsZTQ5MDc5Ij5TaGVldC4zOTkzPC90aXRsZT4mI3hhOwkJCQkJPHBhdGggaWQ9InBhdGg0OTA4MSIgaW5rc2NhcGU6Y29ubmVjdG9yLWN1cnZhdHVyZT0iMCIgc3R5bGU9ImZpbGw6I0U5QUM0NzsiIGQ9Ik0yNS44MSw1Ny4wMUgwLjkxQzAuNDEsNTcuMDEsMCw1Ni42LDAsNTYuMDkgICAgICAgdi05Ljc1aDI2LjcydjkuNzVDMjYuNzIsNTYuNiwyNi4zMSw1Ny4wMSwyNS44MSw1Ny4wMXoiLz4mI3hhOwkJCQk8L2c+JiN4YTsJCQkJPGcgaWQ9Imdyb3VwMzk5NC0xMCIgdHJhbnNmb3JtPSJ0cmFuc2xhdGUoNC45NzA4NSwtMTUuMDY1MSkiPiYjeGE7CQkJCQk8dGl0bGUgaWQ9InRpdGxlNDkwODQiPlNoZWV0LjM5OTQ8L3RpdGxlPiYjeGE7CQkJCQk8ZyBpZD0ic2hhcGUzOTk1LTExIj4mI3hhOwkJCQkJCTx0aXRsZSBpZD0idGl0bGU0OTA4NiI+U2hlZXQuMzk5NTwvdGl0bGU+JiN4YTsJCQkJCQk8cGF0aCBpZD0icGF0aDQ5MDg4IiBpbmtzY2FwZTpjb25uZWN0b3ItY3VydmF0dXJlPSIwIiBzdHlsZT0iZmlsbDojRTlBQzQ3OyIgZD0iTTMuMTEsNDguODV2LTIuNTEgICAgICAgIGMwLTAuMzUsMC4yOC0wLjYzLDAuNjItMC42M3MwLjYyLTAuMjgsMC42Mi0wLjYzYzAtMC4zNC0wLjI4LTAuNjMtMC42Mi0wLjYzYy0xLjAzLDAtMS44NywwLjg1LTEuODcsMS44OXYyLjUxICAgICAgICBjMCwwLjY5LTAuNTUsMS4yNS0xLjI0LDEuMjVDMC4yOCw1MC4xLDAsNTAuMzksMCw1MC43M2MwLDAuMzUsMC4yOCwwLjYzLDAuNjIsMC42M2MwLjY5LDAsMS4yNCwwLjU2LDEuMjQsMS4yNnYyLjUxICAgICAgICBjMCwxLjAzLDAuODQsMS44OCwxLjg3LDEuODhjMC4zNCwwLDAuNjItMC4yOCwwLjYyLTAuNjNjMC0wLjM1LTAuMjgtMC42My0wLjYyLTAuNjNzLTAuNjItMC4yOC0wLjYyLTAuNjJ2LTIuNTEgICAgICAgIGMwLTAuNzYtMC4zNC0xLjQzLTAuODYtMS44OUMyLjc3LDUwLjI3LDMuMTEsNDkuNiwzLjExLDQ4Ljg1eiIvPiYjeGE7CQkJCQk8L2c+JiN4YTsJCQkJCTxnIGlkPSJzaGFwZTM5OTYtMTMiIHRyYW5zZm9ybT0idHJhbnNsYXRlKDcuMTQ1NTksLTcuNTMyNTQpIj4mI3hhOwkJCQkJCTx0aXRsZSBpZD0idGl0bGU0OTA5MSI+U2hlZXQuMzk5NjwvdGl0bGU+JiN4YTsJCQkJCQk8ZWxsaXBzZSBpZD0iZWxsaXBzZTQ5MDkzIiBzdHlsZT0iZmlsbDojRTlBQzQ3OyIgY3g9IjAuOTMiIGN5PSI1Ni4wNyIgcng9IjAuOTMiIHJ5PSIwLjk0Ii8+JiN4YTsJCQkJCTwvZz4mI3hhOwkJCQkJPGcgaWQ9InNoYXBlMzk5Ny0xNSIgdHJhbnNmb3JtPSJ0cmFuc2xhdGUoMTEuODA1OCkiPiYjeGE7CQkJCQkJPHRpdGxlIGlkPSJ0aXRsZTQ5MDk2Ij5TaGVldC4zOTk3PC90aXRsZT4mI3hhOwkJCQkJCTxwYXRoIGlkPSJwYXRoNDkwOTgiIGlua3NjYXBlOmNvbm5lY3Rvci1jdXJ2YXR1cmU9IjAiIHN0eWxlPSJmaWxsOiNFOUFDNDc7IiBkPSJNMy43Myw1MC4xYy0wLjY5LDAtMS4yNC0wLjU2LTEuMjQtMS4yNSAgICAgICAgdi0yLjUxYzAtMS4wNC0wLjg0LTEuODktMS44Ny0xLjg5QzAuMjgsNDQuNDUsMCw0NC43NCwwLDQ1LjA4YzAsMC4zNSwwLjI4LDAuNjMsMC42MiwwLjYzczAuNjIsMC4yOCwwLjYyLDAuNjN2Mi41MSAgICAgICAgYzAsMC43NSwwLjM0LDEuNDIsMC44NiwxLjg4Yy0wLjUyLDAuNDYtMC44NiwxLjEzLTAuODYsMS44OXYyLjUxYzAsMC4zNC0wLjI4LDAuNjItMC42MiwwLjYyUzAsNTYuMDMsMCw1Ni4zOCAgICAgICAgYzAsMC4zNSwwLjI4LDAuNjMsMC42MiwwLjYzYzEuMDMsMCwxLjg3LTAuODUsMS44Ny0xLjg4di0yLjUxYzAtMC43LDAuNTUtMS4yNiwxLjI0LTEuMjZjMC4zNCwwLDAuNjItMC4yOCwwLjYyLTAuNjMgICAgICAgIEM0LjM1LDUwLjM5LDQuMDcsNTAuMSwzLjczLDUwLjF6Ii8+JiN4YTsJCQkJCTwvZz4mI3hhOwkJCQkJPGcgaWQ9InNoYXBlMzk5OC0xNyIgdHJhbnNmb3JtPSJ0cmFuc2xhdGUoNy40NTYyNywtMS44ODMxNCkiPiYjeGE7CQkJCQkJPHRpdGxlIGlkPSJ0aXRsZTQ5MTAxIj5TaGVldC4zOTk4PC90aXRsZT4mI3hhOwkJCQkJCTxwYXRoIGlkPSJwYXRoNDkxMDMiIGlua3NjYXBlOmNvbm5lY3Rvci1jdXJ2YXR1cmU9IjAiIHN0eWxlPSJmaWxsOiNFOUFDNDc7IiBkPSJNMC42Miw1My44N0MwLjI4LDUzLjg3LDAsNTQuMTUsMCw1NC41djEuODggICAgICAgIGMwLDAuMzUsMC4yOCwwLjYzLDAuNjIsMC42M3MwLjYyLTAuMjgsMC42Mi0wLjYzVjU0LjVDMS4yNCw1NC4xNSwwLjk2LDUzLjg3LDAuNjIsNTMuODd6Ii8+JiN4YTsJCQkJCTwvZz4mI3hhOwkJCQk8L2c+JiN4YTsJCQk8L2c+JiN4YTsJCTwvZz4mI3hhOwkJPGcgaWQ9Imdyb3VwMzk5OS0xOSIgdHJhbnNmb3JtPSJ0cmFuc2xhdGUoMy44MTMzNCwtMi40NTc4MSkiPiYjeGE7CQkJPHRpdGxlIGlkPSJ0aXRsZTQ5MTA5Ij5KU09OLjM2NjY0PC90aXRsZT4mI3hhOwkJCTxnIGlkPSJzaGFwZTQwMDAtMjAiIHRyYW5zZm9ybT0idHJhbnNsYXRlKDAsLTUuMzA5NzJlLTUpIj4mI3hhOwkJCQk8dGl0bGUgaWQ9InRpdGxlNDkxMTEiPlNoZWV0LjQwMDA8L3RpdGxlPiYjeGE7CQkJCTxwYXRoIGlkPSJwYXRoNDkxMTMiIGlua3NjYXBlOmNvbm5lY3Rvci1jdXJ2YXR1cmU9IjAiIHN0eWxlPSJmaWxsOiNGRkZGRkY7IiBkPSJNMy40OCw1MS4xN3Y0LjQzYzAsMC4yNi0wLjA1LDAuNDktMC4xNSwwLjY3ICAgICAgYy0wLjA5LDAuMTgtMC4yMywwLjMzLTAuMzksMC40NGMtMC4xNiwwLjExLTAuMzUsMC4xOS0wLjU3LDAuMjNjLTAuMjEsMC4wNS0wLjQzLDAuMDctMC42NiwwLjA3Yy0wLjExLDAtMC4yNC0wLjAxLTAuMzktMC4wNCAgICAgIGMtMC4xNi0wLjAyLTAuMzEtMC4wNS0wLjQ4LTAuMWMtMC4xNi0wLjA1LTAuMzEtMC4xMS0wLjQ2LTAuMTdDMC4yMyw1Ni42NCwwLjEsNTYuNTcsMCw1Ni40OWwwLjM5LTAuNjIgICAgICBjMC4wNSwwLjAzLDAuMTMsMC4wNywwLjIyLDAuMTFjMC4xLDAuMDQsMC4yLDAuMDcsMC4zMiwwLjExYzAuMTEsMC4wMywwLjIzLDAuMDYsMC4zNSwwLjA5YzAuMTIsMC4wMiwwLjI0LDAuMDMsMC4zNSwwLjAzICAgICAgYzAuMjcsMCwwLjQ5LTAuMDUsMC42NS0wLjE1YzAuMTYtMC4xMSwwLjI1LTAuMjksMC4yNi0wLjU0di00LjM1TDMuNDgsNTEuMTd6Ii8+JiN4YTsJCQk8L2c+JiN4YTsJCQk8ZyBpZD0ic2hhcGU0MDAxLTIyIiB0cmFuc2Zvcm09InRyYW5zbGF0ZSg0Ljc4NDA1LC0wLjAwNzg1ODM4KSI+JiN4YTsJCQkJPHRpdGxlIGlkPSJ0aXRsZTQ5MTE2Ij5TaGVldC40MDAxPC90aXRsZT4mI3hhOwkJCQk8cGF0aCBpZD0icGF0aDQ5MTE4IiBpbmtzY2FwZTpjb25uZWN0b3ItY3VydmF0dXJlPSIwIiBzdHlsZT0iZmlsbDojRkZGRkZGOyIgZD0iTTMuMyw1NS40MmMwLDAuMjEtMC4wNCwwLjQtMC4xMiwwLjYgICAgICBjLTAuMDksMC4xOS0wLjIxLDAuMzYtMC4zNiwwLjUxYy0wLjE2LDAuMTQtMC4zNSwwLjI2LTAuNTcsMC4zNWMtMC4yMywwLjA5LTAuNDksMC4xMy0wLjc4LDAuMTNjLTAuMTIsMC0wLjI1LTAuMDEtMC4zOC0wLjAyICAgICAgYy0wLjEzLTAuMDEtMC4yNi0wLjA0LTAuNC0wLjA3Yy0wLjEzLTAuMDMtMC4yNi0wLjA3LTAuMzgtMC4xMkMwLjE5LDU2Ljc0LDAuMDksNTYuNjgsMCw1Ni42bDAuMTYtMC42NiAgICAgIGMwLjA3LDAuMDQsMC4xNywwLjA4LDAuMjgsMC4xMmMwLjExLDAuMDMsMC4yMiwwLjA3LDAuMzQsMC4xYzAuMTIsMC4wNCwwLjI0LDAuMDYsMC4zNSwwLjA4YzAuMTIsMC4wMywwLjIzLDAuMDQsMC4zNCwwLjA0ICAgICAgYzAuMzEsMCwwLjU1LTAuMDgsMC43Mi0wLjIyYzAuMTYtMC4xNSwwLjI1LTAuMzcsMC4yNS0wLjY2YzAtMC4xNy0wLjA2LTAuMzItMC4xOC0wLjQ0Yy0wLjEyLTAuMTMtMC4yNy0wLjI0LTAuNDQtMC4zNCAgICAgIGMtMC4xOC0wLjEtMC4zNy0wLjItMC41OC0wLjNjLTAuMi0wLjEtMC40LTAuMjItMC41OC0wLjM2Yy0wLjE4LTAuMTMtMC4zMy0wLjI5LTAuNDQtMC40OGMtMC4xMi0wLjE4LTAuMTgtMC40MS0wLjE4LTAuNjkgICAgICBjMC0wLjI1LDAuMDQtMC40OCwwLjE0LTAuNjdjMC4wOS0wLjIsMC4yMS0wLjM2LDAuMzctMC41czAuMzQtMC4yNCwwLjU1LTAuMzFjMC4yMS0wLjA4LDAuNDMtMC4xMSwwLjY2LTAuMTEgICAgICBjMC4yNCwwLDAuNDgsMC4wMiwwLjcyLDAuMDZjMC4yNCwwLjA1LDAuNDMsMC4xMiwwLjU4LDAuMjJDMy4wMyw1MS41NCwzLDUxLjYyLDIuOTYsNTEuN2MtMC4wNSwwLjA4LTAuMDgsMC4xNS0wLjEyLDAuMjIgICAgICBjLTAuMDQsMC4wNy0wLjA3LDAuMTMtMC4wOSwwLjE3Yy0wLjAzLDAuMDUtMC4wNCwwLjA4LTAuMDUsMC4wOGMtMC4wMy0wLjAxLTAuMDYtMC4wMy0wLjEtMC4wNmMtMC4wNC0wLjAzLTAuMS0wLjA1LTAuMTctMC4wOCAgICAgIGMtMC4wNy0wLjAyLTAuMTctMC4wNC0wLjI5LTAuMDVjLTAuMTEtMC4wMS0wLjI3LTAuMDEtMC40NSwwLjAxYy0wLjEsMC4wMS0wLjIsMC4wNC0wLjI5LDAuMDhjLTAuMSwwLjA1LTAuMTgsMC4xMS0wLjI1LDAuMTkgICAgICBjLTAuMDcsMC4wNy0wLjEzLDAuMTUtMC4xNywwLjI0Yy0wLjA0LDAuMDktMC4wNiwwLjE4LTAuMDYsMC4yNmMwLDAuMiwwLjA2LDAuMzcsMC4xNywwLjVjMC4xMiwwLjEyLDAuMjcsMC4yMywwLjQ0LDAuMzMgICAgICBjMC4xOCwwLjA5LDAuMzcsMC4xOSwwLjU4LDAuMjhjMC4yLDAuMDgsMC4zOSwwLjE5LDAuNTcsMC4zMmMwLjE4LDAuMTMsMC4zMywwLjI5LDAuNDQsMC40OUMzLjI0LDU0Ljg3LDMuMyw1NS4xMiwzLjMsNTUuNDJ6Ii8+JiN4YTsJCQk8L2c+JiN4YTsJCQk8ZyBpZD0ic2hhcGU0MDAyLTI0IiB0cmFuc2Zvcm09InRyYW5zbGF0ZSg4LjkzNjUyKSI+JiN4YTsJCQkJPHRpdGxlIGlkPSJ0aXRsZTQ5MTIxIj5TaGVldC40MDAyPC90aXRsZT4mI3hhOwkJCQk8cGF0aCBpZD0icGF0aDQ5MTIzIiBpbmtzY2FwZTpjb25uZWN0b3ItY3VydmF0dXJlPSIwIiBzdHlsZT0iZmlsbDojRkZGRkZGOyIgZD0iTTQuNzQsNTQuMWMwLDAuNDgtMC4wNiwwLjktMC4xOCwxLjI3ICAgICAgYy0wLjEyLDAuMzYtMC4yOSwwLjY2LTAuNTEsMC45MWMtMC4yMSwwLjI0LTAuNDYsMC40Mi0wLjc0LDAuNTRjLTAuMjksMC4xMy0wLjYsMC4xOS0wLjk0LDAuMTlzLTAuNjUtMC4wNi0wLjk0LTAuMTkgICAgICBjLTAuMjgtMC4xMi0wLjUzLTAuMy0wLjc1LTAuNTRjLTAuMjEtMC4yNS0wLjM4LTAuNTUtMC41LTAuOTFDMC4wNiw1NSwwLDU0LjU4LDAsNTQuMWMwLTAuNDgsMC4wNi0wLjksMC4xOC0xLjI2ICAgICAgczAuMjktMC42NywwLjUtMC45MWMwLjIyLTAuMjQsMC40Ny0wLjQyLDAuNzUtMC41NWMwLjI5LTAuMTMsMC42LTAuMTksMC45NC0wLjE5czAuNjUsMC4wNiwwLjk0LDAuMTkgICAgICBjMC4yOCwwLjEzLDAuNTMsMC4zMSwwLjc0LDAuNTVjMC4yMiwwLjI0LDAuMzksMC41NSwwLjUxLDAuOTFDNC42OCw1My4yLDQuNzQsNTMuNjIsNC43NCw1NC4xeiBNMi4zNSw1Ni4yNSAgICAgIGMwLjE5LDAsMC4zNy0wLjAzLDAuNTQtMC4xMWMwLjE3LTAuMDcsMC4zMy0wLjIsMC40Ni0wLjM2YzAuMTQtMC4xNywwLjI1LTAuNCwwLjMyLTAuNjdjMC4wOC0wLjI4LDAuMTItMC42MSwwLjEzLTEuMDEgICAgICBjLTAuMDEtMC4zOS0wLjA1LTAuNzEtMC4xMi0wLjk4Yy0wLjA4LTAuMjctMC4xOC0wLjUtMC4zMS0wLjY3Yy0wLjEzLTAuMTgtMC4yOC0wLjMtMC40NS0wLjM4Yy0wLjE3LTAuMDgtMC4zNC0wLjExLTAuNTMtMC4xMSAgICAgIGMtMC4xOSwwLTAuMzcsMC4wMy0wLjU0LDAuMWMtMC4xOCwwLjA4LTAuMzMsMC4yLTAuNDcsMC4zN2MtMC4xMywwLjE3LTAuMjQsMC4zOS0wLjMyLDAuNjdjLTAuMDcsMC4yNy0wLjExLDAuNi0wLjEyLDEgICAgICBjMC4wMSwwLjM5LDAuMDUsMC43MiwwLjEyLDAuOTljMC4wOCwwLjI3LDAuMTgsMC40OSwwLjMxLDAuNjdjMC4xMywwLjE3LDAuMjgsMC4yOSwwLjQ1LDAuMzdDMS45OCw1Ni4yMSwyLjE2LDU2LjI1LDIuMzUsNTYuMjUgICAgICB6Ii8+JiN4YTsJCQk8L2c+JiN4YTsJCQk8ZyBpZD0ic2hhcGU0MDAzLTI2IiB0cmFuc2Zvcm09InRyYW5zbGF0ZSgxNC45Nzg3LC0wLjAzODM4OTIpIj4mI3hhOwkJCQk8dGl0bGUgaWQ9InRpdGxlNDkxMjYiPlNoZWV0LjQwMDM8L3RpdGxlPiYjeGE7CQkJCTxwYXRoIGlkPSJwYXRoNDkxMjgiIGlua3NjYXBlOmNvbm5lY3Rvci1jdXJ2YXR1cmU9IjAiIHN0eWxlPSJmaWxsOiNGRkZGRkY7IiBkPSJNNC4xMSw1MS4zMnY1LjY5SDMuMTdsLTIuMjMtMy45MnYzLjkySDB2LTUuNjkgICAgICBoMC45NGwyLjIzLDMuOTJ2LTMuOTJMNC4xMSw1MS4zMnoiLz4mI3hhOwkJCTwvZz4mI3hhOwkJPC9nPiYjeGE7CTwvZz4mI3hhOzwvZz4mI3hhOzwvc3ZnPg==;" parent="1" vertex="1">
          <mxGeometry x="90" y="233" width="27" height="35" as="geometry" />
        </mxCell>
        <mxCell id="rxB6j44p4bmtlhbTxSTX-9" value="" style="shape=image;verticalLabelPosition=bottom;labelBackgroundColor=#ffffff;verticalAlign=top;aspect=fixed;imageAspect=0;image=data:image/svg+xml,PHN2ZyB4bWxuczpjYz0iaHR0cDovL2NyZWF0aXZlY29tbW9ucy5vcmcvbnMjIiB4bWxuczpkYz0iaHR0cDovL3B1cmwub3JnL2RjL2VsZW1lbnRzLzEuMS8iIHhtbG5zOmlua3NjYXBlPSJodHRwOi8vd3d3Lmlua3NjYXBlLm9yZy9uYW1lc3BhY2VzL2lua3NjYXBlIiB4bWxuczpyZGY9Imh0dHA6Ly93d3cudzMub3JnLzE5OTkvMDIvMjItcmRmLXN5bnRheC1ucyMiIHhtbG5zOnNvZGlwb2RpPSJodHRwOi8vc29kaXBvZGkuc291cmNlZm9yZ2UubmV0L0RURC9zb2RpcG9kaS0wLmR0ZCIgeG1sbnM6c3ZnPSJodHRwOi8vd3d3LnczLm9yZy8yMDAwL3N2ZyIgeG1sbnM9Imh0dHA6Ly93d3cudzMub3JnLzIwMDAvc3ZnIiB4bWxuczp4bGluaz0iaHR0cDovL3d3dy53My5vcmcvMTk5OS94bGluayIgdmVyc2lvbj0iMS4xIiBpZD0ic3ZnNDg3MTQiIGlua3NjYXBlOnZlcnNpb249IjAuOTIuMyAoMjQwNTU0NiwgMjAxOC0wMy0xMSkiIHNvZGlwb2RpOmRvY25hbWU9ImpwZy5zdmciIHg9IjBweCIgeT0iMHB4IiB2aWV3Qm94PSIwIDAgMjYuNzIgMzUuMTUiIHN0eWxlPSJlbmFibGUtYmFja2dyb3VuZDpuZXcgMCAwIDI2LjcyIDM1LjE1OyIgeG1sOnNwYWNlPSJwcmVzZXJ2ZSI+JiN4YTs8c29kaXBvZGk6bmFtZWR2aWV3IGJvcmRlcmNvbG9yPSIjNjY2NjY2IiBib3JkZXJvcGFjaXR5PSIxIiBmaXQtbWFyZ2luLWJvdHRvbT0iMCIgZml0LW1hcmdpbi1sZWZ0PSIwIiBmaXQtbWFyZ2luLXJpZ2h0PSIwIiBmaXQtbWFyZ2luLXRvcD0iMCIgZ3JpZHRvbGVyYW5jZT0iMTAiIGd1aWRldG9sZXJhbmNlPSIxMCIgaWQ9Im5hbWVkdmlldzQ4NzE2IiBpbmtzY2FwZTpjdXJyZW50LWxheWVyPSJzdmc0ODcxNCIgaW5rc2NhcGU6Y3g9IjE3LjgxMjE1NiIgaW5rc2NhcGU6Y3k9IjIzLjQzNTg5NiIgaW5rc2NhcGU6cGFnZW9wYWNpdHk9IjAiIGlua3NjYXBlOnBhZ2VzaGFkb3c9IjIiIGlua3NjYXBlOndpbmRvdy1oZWlnaHQ9IjEwMTciIGlua3NjYXBlOndpbmRvdy1tYXhpbWl6ZWQ9IjEiIGlua3NjYXBlOndpbmRvdy13aWR0aD0iMTkyMCIgaW5rc2NhcGU6d2luZG93LXg9Ii04IiBpbmtzY2FwZTp3aW5kb3cteT0iLTgiIGlua3NjYXBlOnpvb209IjExLjQwNjA4OSIgb2JqZWN0dG9sZXJhbmNlPSIxMCIgcGFnZWNvbG9yPSIjZmZmZmZmIiBzaG93Z3JpZD0iZmFsc2UiPiYjeGE7CTwvc29kaXBvZGk6bmFtZWR2aWV3PiYjeGE7PGcgaWQ9Imc0ODcxMiIgdHJhbnNmb3JtPSJ0cmFuc2xhdGUoLTEwLjkyODYsLTEwLjkzMTQpIj4mI3hhOwk8dGl0bGUgaWQ9InRpdGxlNDg2NjEiPlBhZ2UtMTwvdGl0bGU+JiN4YTsJPGcgaWQ9Imdyb3VwNDMyNy0xIiB0cmFuc2Zvcm09InRyYW5zbGF0ZSgxMC45Mjg2LC0xMC45Mjg2KSI+JiN4YTsJCTx0aXRsZSBpZD0idGl0bGU0ODY2MyI+SlBHPC90aXRsZT4mI3hhOwkJPGcgaWQ9Imdyb3VwNDMyOC0yIj4mI3hhOwkJCTx0aXRsZSBpZD0idGl0bGU0ODY2NSI+U2hlZXQuNDMyODwvdGl0bGU+JiN4YTsJCQk8ZyBpZD0ic2hhcGU0MzI5LTMiPiYjeGE7CQkJCTx0aXRsZSBpZD0idGl0bGU0ODY2NyI+U2hlZXQuNDMyOTwvdGl0bGU+JiN4YTsJCQkJPHBhdGggaWQ9InBhdGg0ODY2OSIgaW5rc2NhcGU6Y29ubmVjdG9yLWN1cnZhdHVyZT0iMCIgc3R5bGU9ImZpbGw6I0U5RTlFMDsiIGQ9Ik0xOC45NCwyMS44NkgwLjkxYy0wLjUsMC0wLjkxLDAuNDEtMC45MSwxLjIxICAgICAgdjMzLjMxYzAsMC4yMiwwLjQxLDAuNjMsMC45MSwwLjYzaDI0LjljMC41LDAsMC45MS0wLjQxLDAuOTEtMC42M1YzMGMwLTAuNDMtMC4wNi0wLjU3LTAuMTYtMC42OGwtNy4yMy03LjMgICAgICBDMTkuMjMsMjEuOTIsMTkuMDksMjEuODYsMTguOTQsMjEuODZ6Ii8+JiN4YTsJCQk8L2c+JiN4YTsJCQk8ZyBpZD0ic2hhcGU0MzMwLTUiIHRyYW5zZm9ybT0idHJhbnNsYXRlKDE5LjI2MiwtMjcuNjE5MykiPiYjeGE7CQkJCTx0aXRsZSBpZD0idGl0bGU0ODY3MiI+U2hlZXQuNDMzMDwvdGl0bGU+JiN4YTsJCQkJPHBhdGggaWQ9InBhdGg0ODY3NCIgaW5rc2NhcGU6Y29ubmVjdG9yLWN1cnZhdHVyZT0iMCIgc3R5bGU9ImZpbGw6I0Q5RDdDQTsiIGQ9Ik0wLDQ5LjU3djcuNDRoNy4zNkwwLDQ5LjU3eiIvPiYjeGE7CQkJPC9nPiYjeGE7CQkJPGcgaWQ9InNoYXBlNDMzMS03IiB0cmFuc2Zvcm09InRyYW5zbGF0ZSg0Ljg4NTEsLTIzLjIyNTMpIj4mI3hhOwkJCQk8dGl0bGUgaWQ9InRpdGxlNDg2NzciPlNoZWV0LjQzMzE8L3RpdGxlPiYjeGE7CQkJCTxlbGxpcHNlIGlkPSJlbGxpcHNlNDg2NzkiIHN0eWxlPSJmaWxsOiNGM0Q1NUI7IiBjeD0iMi44NCIgY3k9IjU0LjE0IiByeD0iMi44NCIgcnk9IjIuODciLz4mI3hhOwkJCTwvZz4mI3hhOwkJCTxnIGlkPSJzaGFwZTQzMzItOSIgdHJhbnNmb3JtPSJ0cmFuc2xhdGUoMCwtMTAuNjcxMSkiPiYjeGE7CQkJCTx0aXRsZSBpZD0idGl0bGU0ODY4MiI+U2hlZXQuNDMzMjwvdGl0bGU+JiN4YTsJCQkJPHBhdGggaWQ9InBhdGg0ODY4NCIgaW5rc2NhcGU6Y29ubmVjdG9yLWN1cnZhdHVyZT0iMCIgc3R5bGU9ImZpbGw6IzI2Qjk5QTsiIGQ9Ik0wLDU3LjAxaDYuODNoMTkuODlWNTAuMWwtNi4yMi01Ljk2ICAgICAgbC02LjUyLDcuMjJsLTMuNDEtMy40NEwwLDU3LjAxeiIvPiYjeGE7CQkJPC9nPiYjeGE7CQkJPGcgaWQ9InNoYXBlNDMzMy0xMSI+JiN4YTsJCQkJPHRpdGxlIGlkPSJ0aXRsZTQ4Njg3Ij5TaGVldC40MzMzPC90aXRsZT4mI3hhOwkJCQk8cGF0aCBpZD0icGF0aDQ4Njg5IiBpbmtzY2FwZTpjb25uZWN0b3ItY3VydmF0dXJlPSIwIiBzdHlsZT0iZmlsbDojMTRBMDg1OyIgZD0iTTI1LjgxLDU3LjAxSDAuOTFDMC40MSw1Ny4wMSwwLDU2LjYsMCw1Ni4wOSAgICAgIHYtOS43NWgyNi43MnY5Ljc1QzI2LjcyLDU2LjYsMjYuMzEsNTcuMDEsMjUuODEsNTcuMDF6Ii8+JiN4YTsJCQk8L2c+JiN4YTsJCQk8ZyBpZD0iZ3JvdXA0MzM0LTEzIiB0cmFuc2Zvcm09InRyYW5zbGF0ZSg1LjQ0MzA4LC0xLjg4MzE0KSI+JiN4YTsJCQkJPHRpdGxlIGlkPSJ0aXRsZTQ4NjkyIj5TaGVldC40MzM0PC90aXRsZT4mI3hhOwkJCQk8ZyBpZD0ic2hhcGU0MzM1LTE0Ij4mI3hhOwkJCQkJPHRpdGxlIGlkPSJ0aXRsZTQ4Njk0Ij5TaGVldC40MzM1PC90aXRsZT4mI3hhOwkJCQkJPHBhdGggaWQ9InBhdGg0ODY5NiIgaW5rc2NhcGU6Y29ubmVjdG9yLWN1cnZhdHVyZT0iMCIgc3R5bGU9ImZpbGw6I0ZGRkZGRjsiIGQ9Ik0zLjgzLDUwLjUxdjQuOTNjMCwwLjMtMC4wNSwwLjU1LTAuMTYsMC43NSAgICAgICBjLTAuMTEsMC4yLTAuMjUsMC4zNy0wLjQzLDAuNDljLTAuMTgsMC4xMi0wLjM5LDAuMjEtMC42MywwLjI2Yy0wLjIzLDAuMDQtMC40OCwwLjA3LTAuNzIsMC4wN2MtMC4xMywwLTAuMjgtMC4wMS0wLjQ0LTAuMDQgICAgICAgYy0wLjE3LTAuMDMtMC4zNC0wLjA3LTAuNTItMC4xMmMtMC4xOC0wLjA1LTAuMzUtMC4xMi0wLjUxLTAuMThDMC4yNSw1Ni42LDAuMTEsNTYuNTIsMCw1Ni40M2wwLjQzLTAuNjkgICAgICAgYzAuMDYsMC4wNCwwLjE0LDAuMDgsMC4yNSwwLjEyYzAuMSwwLjA1LDAuMjEsMC4wOSwwLjM0LDAuMTJjMC4xMiwwLjA0LDAuMjUsMC4wNywwLjM5LDAuMXMwLjI2LDAuMDQsMC4zOCwwLjA0ICAgICAgIGMwLjMsMCwwLjU0LTAuMDUsMC43Mi0wLjE3czAuMjctMC4zMiwwLjI4LTAuNnYtNC44NEwzLjgzLDUwLjUxeiIvPiYjeGE7CQkJCTwvZz4mI3hhOwkJCQk8ZyBpZD0ic2hhcGU0MzM2LTE2IiB0cmFuc2Zvcm09InRyYW5zbGF0ZSg1LjM1MTc0LC0wLjA0MjY4NDQpIj4mI3hhOwkJCQkJPHRpdGxlIGlkPSJ0aXRsZTQ4Njk5Ij5TaGVldC40MzM2PC90aXRsZT4mI3hhOwkJCQkJPHBhdGggaWQ9InBhdGg0ODcwMSIgaW5rc2NhcGU6Y29ubmVjdG9yLWN1cnZhdHVyZT0iMCIgc3R5bGU9ImZpbGw6I0ZGRkZGRjsiIGQ9Ik0xLjAyLDU3LjAxSDB2LTYuMzNoMS44ICAgICAgIGMwLjI3LDAsMC41MywwLjA1LDAuNzksMC4xM2MwLjI2LDAuMDksMC40OSwwLjIyLDAuNywwLjM5czAuMzgsMC4zOCwwLjUsMC42MmMwLjEzLDAuMjQsMC4xOSwwLjUyLDAuMTksMC44MiAgICAgICBjMCwwLjMyLTAuMDUsMC42MS0wLjE2LDAuODdjLTAuMSwwLjI2LTAuMjYsMC40OC0wLjQ1LDAuNjZzLTAuNDIsMC4zMS0wLjY5LDAuNDFjLTAuMjgsMC4xLTAuNTgsMC4xNS0wLjksMC4xNUgxLjAyVjU3LjAxeiAgICAgICAgTTEuMDIsNTEuNDd2Mi41aDAuOTNjMC4xMywwLDAuMjUtMC4wMiwwLjM3LTAuMDZjMC4xMy0wLjA1LDAuMjQtMC4xMiwwLjM0LTAuMjFjMC4xLTAuMSwwLjE4LTAuMjQsMC4yNS0wLjQxICAgICAgIEMyLjk3LDUzLjExLDMsNTIuOSwzLDUyLjY0YzAtMC4xLTAuMDItMC4yMi0wLjA0LTAuMzZjLTAuMDMtMC4xMy0wLjA5LTAuMjYtMC4xOC0wLjM4Yy0wLjA5LTAuMTItMC4yMS0wLjIzLTAuMzctMC4zMSAgICAgICBjLTAuMTYtMC4wOC0wLjM3LTAuMTItMC42My0wLjEyTDEuMDIsNTEuNDd6Ii8+JiN4YTsJCQkJPC9nPiYjeGE7CQkJCTxnIGlkPSJzaGFwZTQzMzctMTgiIHRyYW5zZm9ybT0idHJhbnNsYXRlKDEwLjM4OTcpIj4mI3hhOwkJCQkJPHRpdGxlIGlkPSJ0aXRsZTQ4NzA0Ij5TaGVldC40MzM3PC90aXRsZT4mI3hhOwkJCQkJPHBhdGggaWQ9InBhdGg0ODcwNiIgaW5rc2NhcGU6Y29ubmVjdG9yLWN1cnZhdHVyZT0iMCIgc3R5bGU9ImZpbGw6I0ZGRkZGRjsiIGQ9Ik00LjY3LDUzLjd2Mi40NSAgICAgICBjLTAuMTMsMC4xNy0wLjI3LDAuMy0wLjQ0LDAuNDFjLTAuMTYsMC4xLTAuMzMsMC4xOS0wLjUsMC4yNmMtMC4xOCwwLjA3LTAuMzcsMC4xMi0wLjU2LDAuMTVDMi45OCw1NywyLjc5LDU3LjAxLDIuNjEsNTcuMDEgICAgICAgYy0wLjM4LDAtMC43Mi0wLjA3LTEuMDMtMC4yMWMtMC4zMi0wLjEzLTAuNTktMC4zNC0wLjgzLTAuNjFjLTAuMjMtMC4yNy0wLjQyLTAuNi0wLjU1LTEuMDFTMCw1NC4zMSwwLDUzLjc3ICAgICAgIGMwLTAuNTMsMC4wNy0xLDAuMi0xLjRzMC4zMi0wLjc0LDAuNTUtMS4wMWMwLjI0LTAuMjcsMC41MS0wLjQ3LDAuODMtMC42MXMwLjY2LTAuMjEsMS4wMy0wLjIxYzAuMzQsMCwwLjY1LDAuMDYsMC45NSwwLjE3ICAgICAgIGMwLjI5LDAuMTEsMC41NiwwLjI5LDAuNzksMC41MWwtMC43MSwwLjY0Yy0wLjEzLTAuMTctMC4yOS0wLjI5LTAuNDYtMC4zNkMzLDUxLjQzLDIuODIsNTEuMzksMi42Myw1MS4zOSAgICAgICBjLTAuMjEsMC0wLjQxLDAuMDQtMC42LDAuMTJjLTAuMTksMC4wOC0wLjM2LDAuMjEtMC41MSwwLjQxYy0wLjE1LDAuMTktMC4yNiwwLjQzLTAuMzUsMC43NGMtMC4wOCwwLjMtMC4xMywwLjY3LTAuMTMsMS4xMSAgICAgICBjMCwwLjQzLDAuMDUsMC44LDAuMTMsMS4xMmMwLjA4LDAuMzEsMC4xOSwwLjU3LDAuMzQsMC43N2MwLjE0LDAuMiwwLjMxLDAuMzUsMC40OSwwLjQ1YzAuMTgsMC4wOSwwLjM4LDAuMTQsMC41OCwwLjE0ICAgICAgIGMwLjA2LDAsMC4xNSwwLDAuMjUtMC4wMWMwLjExLTAuMDEsMC4yMS0wLjAyLDAuMzItMC4wNGMwLjEtMC4wMiwwLjItMC4wNSwwLjMtMC4wOGMwLjA5LTAuMDQsMC4xNy0wLjA5LDAuMjEtMC4xNXYtMS41NkgyLjYgICAgICAgVjUzLjdINC42N3oiLz4mI3hhOwkJCQk8L2c+JiN4YTsJCQk8L2c+JiN4YTsJCTwvZz4mI3hhOwk8L2c+JiN4YTs8L2c+JiN4YTs8L3N2Zz4=;" parent="1" vertex="1">
          <mxGeometry x="220" y="233" width="27" height="35" as="geometry" />
        </mxCell>
        <mxCell id="rxB6j44p4bmtlhbTxSTX-32" style="edgeStyle=orthogonalEdgeStyle;rounded=0;orthogonalLoop=1;jettySize=auto;html=1;exitX=0;exitY=1;exitDx=0;exitDy=0;entryX=1.016;entryY=0.591;entryDx=0;entryDy=0;entryPerimeter=0;" parent="1" source="rxB6j44p4bmtlhbTxSTX-10" target="rxB6j44p4bmtlhbTxSTX-29" edge="1">
          <mxGeometry relative="1" as="geometry">
            <Array as="points">
              <mxPoint x="390" y="276" />
            </Array>
          </mxGeometry>
        </mxCell>
        <mxCell id="rxB6j44p4bmtlhbTxSTX-10" value="" style="shape=image;verticalLabelPosition=bottom;labelBackgroundColor=#ffffff;verticalAlign=top;aspect=fixed;imageAspect=0;image=data:image/svg+xml,PHN2ZyB4bWxuczpkYz0iaHR0cDovL3B1cmwub3JnL2RjL2VsZW1lbnRzLzEuMS8iIHhtbG5zOmNjPSJodHRwOi8vY3JlYXRpdmVjb21tb25zLm9yZy9ucyMiIHhtbG5zOnJkZj0iaHR0cDovL3d3dy53My5vcmcvMTk5OS8wMi8yMi1yZGYtc3ludGF4LW5zIyIgeG1sbnM6c3ZnPSJodHRwOi8vd3d3LnczLm9yZy8yMDAwL3N2ZyIgeG1sbnM9Imh0dHA6Ly93d3cudzMub3JnLzIwMDAvc3ZnIiB4bWxuczpzb2RpcG9kaT0iaHR0cDovL3NvZGlwb2RpLnNvdXJjZWZvcmdlLm5ldC9EVEQvc29kaXBvZGktMC5kdGQiIHhtbG5zOmlua3NjYXBlPSJodHRwOi8vd3d3Lmlua3NjYXBlLm9yZy9uYW1lc3BhY2VzL2lua3NjYXBlIiB2ZXJzaW9uPSIxLjEiIGlkPSJzdmc4NjExMyIgaW5rc2NhcGU6dmVyc2lvbj0iMC45Mi4zICgyNDA1NTQ2LCAyMDE4LTAzLTExKSIgc29kaXBvZGk6ZG9jbmFtZT0icmVzdF9hZGFwdGVyLnN2ZyIgeD0iMHB4IiB5PSIwcHgiIHZpZXdCb3g9IjAgMCA2MS41IDcwLjQ3NTUwMSIgeG1sOnNwYWNlPSJwcmVzZXJ2ZSIgd2lkdGg9IjYxLjUiIGhlaWdodD0iNzAuNDc1NTAyIj48bWV0YWRhdGEgaWQ9Im1ldGFkYXRhOTUwOCI+PHJkZjpSREY+PGNjOldvcmsgcmRmOmFib3V0PSIiPjxkYzpmb3JtYXQ+aW1hZ2Uvc3ZnK3htbDwvZGM6Zm9ybWF0PjxkYzp0eXBlIHJkZjpyZXNvdXJjZT0iaHR0cDovL3B1cmwub3JnL2RjL2RjbWl0eXBlL1N0aWxsSW1hZ2UiLz48ZGM6dGl0bGUvPjwvY2M6V29yaz48L3JkZjpSREY+PC9tZXRhZGF0YT48ZGVmcyBpZD0iZGVmczk1MDYiPiYjeGE7CSYjeGE7CSYjeGE7JiN4YTsJCSYjeGE7CQkmI3hhOwkJJiN4YTsJJiN4YTsJCQkmI3hhOwkJCSYjeGE7CQkJJiN4YTsJCQkmI3hhOwkJJiN4YTsJCQkmI3hhOwkJCSYjeGE7CQkJJiN4YTsJCQkmI3hhOwkJCSYjeGE7CQkJJiN4YTsJCSYjeGE7CQkJCSYjeGE7CQkJCSYjeGE7CQkJCQkmI3hhOwkJCSYjeGE7CQkJCSYjeGE7CQkJCSYjeGE7CQkJCQkmI3hhOwkJCSYjeGE7CQkJCSYjeGE7CQkJCSYjeGE7CQkJCQkmI3hhOwkJCSYjeGE7CQkJCSYjeGE7CQkJCSYjeGE7CQkJCQkmI3hhOwkJCSYjeGE7CQkJCSYjeGE7CQkJCSYjeGE7CQkJCQkmI3hhOwkJCSYjeGE7CQkJCSYjeGE7CQkJCSYjeGE7CQkJCSYjeGE7CQkJCSYjeGE7CQkJCSYjeGE7CQkJJiN4YTsJCQkJJiN4YTsJCQkJJiN4YTsJCQkJJiN4YTsJCQkmI3hhOwkJCQkmI3hhOwkJCQkmI3hhOwkJCQkmI3hhOwkJCSYjeGE7CQkJCQkmI3hhOwkJCQkmI3hhOwkJCQkJJiN4YTsJCQkJJiN4YTsJCQkJCSYjeGE7CQkJCQkmI3hhOwkJCQkJJiN4YTsJCQkJJiN4YTsJCQkJCSYjeGE7CQkJCQkmI3hhOwkJCQkJJiN4YTsJCQkJJiN4YTsJCQkJCSYjeGE7CQkJCQkmI3hhOwkJCQkJJiN4YTsJCQkJJiN4YTsJCQkJCSYjeGE7CQkJCQkmI3hhOwkJCQkJJiN4YTsJCQkJJiN4YTsJCQkJCQkmI3hhOwkJCQkJJiN4YTsJCQkJCQkmI3hhOwkJCQkJJiN4YTsJCQkJCQkmI3hhOwkJCQkJJiN4YTsJCQkJCQkmI3hhOwkJCQkJJiN4YTsJCQkJCQkmI3hhOwkJCQkJJiN4YTsJCQkJCQkmI3hhOwkJCQkJJiN4YTsJCQkJCQkJJiN4YTsJCQkJCQkmI3hhOwkJCQkJCQkmI3hhOwkJCQkJCSYjeGE7CQkJCQkJCSYjeGE7CQkJCQkJPC9kZWZzPiYjeGE7PGZpbHRlciBpZD0iZmlsdGVyXzIiPiYjeGE7CTxmZUdhdXNzaWFuQmx1ciBpZD0iZmVHYXVzc2lhbkJsdXI4NjAyMCIgc3RkRGV2aWF0aW9uPSIyIi8+JiN4YTs8L2ZpbHRlcj4mI3hhOzxzb2RpcG9kaTpuYW1lZHZpZXcgYm9yZGVyY29sb3I9IiM2NjY2NjYiIGJvcmRlcm9wYWNpdHk9IjEiIGZpdC1tYXJnaW4tYm90dG9tPSIwIiBmaXQtbWFyZ2luLWxlZnQ9IjAiIGZpdC1tYXJnaW4tcmlnaHQ9IjAiIGZpdC1tYXJnaW4tdG9wPSIwIiBncmlkdG9sZXJhbmNlPSIxMCIgZ3VpZGV0b2xlcmFuY2U9IjEwIiBpZD0ibmFtZWR2aWV3ODYxMTUiIGlua3NjYXBlOmN1cnJlbnQtbGF5ZXI9InN2Zzg2MTEzIiBpbmtzY2FwZTpjeD0iMTAuMzA1NjE5IiBpbmtzY2FwZTpjeT0iMjYuMjg2MjE2IiBpbmtzY2FwZTpwYWdlb3BhY2l0eT0iMCIgaW5rc2NhcGU6cGFnZXNoYWRvdz0iMiIgaW5rc2NhcGU6d2luZG93LWhlaWdodD0iMTAxNyIgaW5rc2NhcGU6d2luZG93LW1heGltaXplZD0iMSIgaW5rc2NhcGU6d2luZG93LXdpZHRoPSIxOTIwIiBpbmtzY2FwZTp3aW5kb3cteD0iLTgiIGlua3NjYXBlOndpbmRvdy15PSItOCIgaW5rc2NhcGU6em9vbT0iOC4yNDUwMDYiIG9iamVjdHRvbGVyYW5jZT0iMTAiIHBhZ2Vjb2xvcj0iI2ZmZmZmZiIgc2hvd2dyaWQ9ImZhbHNlIj4mI3hhOwk8L3NvZGlwb2RpOm5hbWVkdmlldz4mI3hhOzxwYXRoIGlkPSJwYXRoODYwMzIiIGlua3NjYXBlOmNvbm5lY3Rvci1jdXJ2YXR1cmU9IjAiIHN0eWxlPSJmaWxsOm5vbmU7c3Ryb2tlOiM1NTZhOGE7c3Ryb2tlLXdpZHRoOjEuNTtzdHJva2UtbWl0ZXJsaW1pdDozIiBkPSJtIDI3Ljc1NDIsNjUuMjIxMzAyIHYgLTI5LjI1Ii8+PHBhdGggaWQ9InBhdGg4NjAzNyIgaW5rc2NhcGU6Y29ubmVjdG9yLWN1cnZhdHVyZT0iMCIgc3R5bGU9ImZpbGw6bm9uZTtzdHJva2U6IzU1NmE4YTtzdHJva2Utd2lkdGg6MS41O3N0cm9rZS1taXRlcmxpbWl0OjMiIGQ9Im0gMzMuNzQ2LDM1Ljk3MTMwMiB2IDI3Ii8+PHBhdGggaWQ9InBhdGg4NjA0MiIgaW5rc2NhcGU6Y29ubmVjdG9yLWN1cnZhdHVyZT0iMCIgc3R5bGU9ImZpbGw6bm9uZTtzdHJva2U6IzU1NmE4YTtzdHJva2Utd2lkdGg6MS41O3N0cm9rZS1taXRlcmxpbWl0OjMiIGQ9Ik0gNjEuNSw2MC43MTc1MDIgSCAwIi8+PHBhdGggaWQ9InBhdGg4NjA0NyIgaW5rc2NhcGU6Y29ubmVjdG9yLWN1cnZhdHVyZT0iMCIgc3R5bGU9ImZpbGw6bm9uZTtzdHJva2U6IzU1NmE4YTtzdHJva2Utd2lkdGg6MS41O3N0cm9rZS1taXRlcmxpbWl0OjMiIGQ9Ik0gNjEuNSw2Ni43MTc1MDIgSCAwIi8+PHBhdGggaWQ9InBhdGg4NjA1MiIgaW5rc2NhcGU6Y29ubmVjdG9yLWN1cnZhdHVyZT0iMCIgc3R5bGU9ImZpbGw6IzkyNzNiNjtzdHJva2U6IzU1NmE4YTtzdHJva2Utd2lkdGg6MS41O3N0cm9rZS1taXRlcmxpbWl0OjMiIGQ9Im0gMjEuNzUsNjYuNzI1NTAyIGMgMCwxLjY2IDEuMzQsMyAzLDMgaCAxMiBjIDEuNjYsMCAzLC0xLjM0IDMsLTMgdiAtNiBjIDAsLTEuNjYgLTEuMzQsLTMgLTMsLTMgaCAtMTIgYyAtMS42NiwwIC0zLDEuMzQgLTMsMyB6Ii8+PGNpcmNsZSBpZD0iZWxsaXBzZTg2MDYzIiBzdHlsZT0iZmlsbDojMTA3YzEwIiBjeD0iMzAuNzU0ODQxIiBjeT0iMjIuMzYwMDAxIiByPSIyMi4zNjAwMDEiLz48cGF0aCBpZD0icGF0aDg2MDcxIiBpbmtzY2FwZTpjb25uZWN0b3ItY3VydmF0dXJlPSIwIiBzdHlsZT0iZmlsbDojMDA0YjFjIiBkPSJtIDE1LjI2NDg0LDYuMjYwMDAxNiBjIC00LjI0LDQuMDgwMDAwNCAtNi44Nyw5Ljc5MDAwMDQgLTYuODcsMTYuMTAwMDAwNCAwLDEyLjM1IDEwLDIyLjM2IDIyLjM2LDIyLjM2IDYuMzEsMCAxMi4wMSwtMi42MyAxNi4wOSwtNi44OCB6Ii8+PHBhdGggZD0ibSAyMS45OTAwNiwyOC4yMzQ3IGggLTEuNjQgbCAtMS45NywtMy4zIGMgLTAuMTgsLTAuMyAtMC4zNSwtMC41NiAtMC41MiwtMC43OCAtMC4xNywtMC4yMSAtMC4zNCwtMC4zOSAtMC41MiwtMC41MyAtMC4xOCwtMC4xMyAtMC4zNywtMC4yMyAtMC41NywtMC4yOSAtMC4yMSwtMC4wNyAtMC40NCwtMC4xIC0wLjcsLTAuMSBoIC0xLjEyIHYgNSBoIC0xLjM4IHYgLTExLjc0IGggMy41IGMgMC41MiwwIDAuOTksMC4wNiAxLjQyLDAuMTkgMC40NCwwLjEzIDAuODIsMC4zMiAxLjEzLDAuNTggMC4zMiwwLjI2IDAuNTcsMC41OSAwLjc1LDAuOTggMC4xOCwwLjM5IDAuMjcsMC44NSAwLjI3LDEuMzcgMCwwLjQxIC0wLjA2LDAuNzkgLTAuMTgsMS4xMyAtMC4xMiwwLjM0IC0wLjMsMC42NCAtMC41MywwLjkxIC0wLjIyLDAuMjcgLTAuNSwwLjUgLTAuODEsMC42OCAtMC4zMiwwLjE5IC0wLjY4LDAuMzQgLTEuMDgsMC40NCB2IDAuMDQgYyAwLjIsMC4wOCAwLjM3LDAuMTggMC41MSwwLjI5IDAuMTUsMC4xMiAwLjI4LDAuMjUgMC40MSwwLjQgMC4xNCwwLjE1IDAuMjcsMC4zMyAwLjM5LDAuNTIgMC4xMywwLjIgMC4yOCwwLjQyIDAuNDMsMC42OCB6IG0gLTcuMDQsLTEwLjUgdiA0LjI2IGggMS44NiBjIDAuMzUsMCAwLjY2LC0wLjA1IDAuOTYsLTAuMTYgMC4yOSwtMC4xIDAuNTQsLTAuMjUgMC43NSwtMC40NCAwLjIyLC0wLjIgMC4zOCwtMC40NCAwLjUsLTAuNzIgMC4xMiwtMC4yOCAwLjE4LC0wLjU5IDAuMTgsLTAuOTQgMCwtMC42MyAtMC4yLC0xLjEyIC0wLjYxLC0xLjQ3IC0wLjQsLTAuMzUgLTAuOTksLTAuNTMgLTEuNzYsLTAuNTMgeiIgc3R5bGU9ImZpbGw6I2ZmZmZmZiIgaW5rc2NhcGU6Y29ubmVjdG9yLWN1cnZhdHVyZT0iMCIgaWQ9InBhdGg4NjA4MSIvPjxwYXRoIGQ9Im0gMjkuODE5MTYsMjguMjM0NyBoIC02LjIyIHYgLTExLjc0IGggNS45NiB2IDEuMjQgaCAtNC41OCB2IDMuOTEgaCA0LjI0IHYgMS4yMyBoIC00LjI0IHYgNC4xMSBoIDQuODQgeiIgc3R5bGU9ImZpbGw6I2ZmZmZmZiIgaW5rc2NhcGU6Y29ubmVjdG9yLWN1cnZhdHVyZT0iMCIgaWQ9InBhdGg4NjA4OSIvPjxwYXRoIGQ9Im0gMzEuNTMxODYsMjcuNzUzMTAyIHYgLTEuNjIgYyAwLjE5LDAuMTcgMC40MSwwLjMxIDAuNjcsMC40NCAwLjI2LDAuMTQgMC41MywwLjI1IDAuODIsMC4zNCAwLjI4LDAuMDkgMC41NywwLjE2IDAuODYsMC4yIDAuMjksMC4wNSAwLjU2LDAuMDggMC44LDAuMDggMC44NSwwIDEuNDgsLTAuMTYgMS45LC0wLjQ3IDAuNDEsLTAuMzIgMC42MiwtMC43NyAwLjYyLC0xLjM2IDAsLTAuMzEgLTAuMDcsLTAuNTkgLTAuMjEsLTAuODIgLTAuMTMsLTAuMjQgLTAuMzMsLTAuNDUgLTAuNTcsLTAuNjUgLTAuMjUsLTAuMTkgLTAuNTQsLTAuMzggLTAuODcsLTAuNTUgLTAuMzQsLTAuMTggLTAuNywtMC4zNyAtMS4wOSwtMC41NiAtMC40MSwtMC4yMSAtMC43OSwtMC40MiAtMS4xNSwtMC42MyAtMC4zNSwtMC4yMiAtMC42NiwtMC40NSAtMC45MiwtMC43MSAtMC4yNiwtMC4yNiAtMC40NywtMC41NSAtMC42MiwtMC44NyAtMC4xNSwtMC4zMyAtMC4yMiwtMC43MSAtMC4yMiwtMS4xNCAwLC0wLjU0IDAuMTEsLTEgMC4zNSwtMS40IDAuMjMsLTAuMzkgMC41NCwtMC43MiAwLjkyLC0wLjk4IDAuMzgsLTAuMjUgMC44MiwtMC40NCAxLjMxLC0wLjU3IDAuNDksLTAuMTIgMC45OSwtMC4xOSAxLjQ5LC0wLjE5IDEuMTYsMCAyLDAuMTQgMi41MywwLjQyIHYgMS41NSBjIC0wLjY5LC0wLjQ4IC0xLjU4LC0wLjcyIC0yLjY3LC0wLjcyIC0wLjMsMCAtMC42LDAuMDMgLTAuOSwwLjA5IC0wLjMsMC4wNiAtMC41NiwwLjE3IC0wLjgsMC4zMSAtMC4yMywwLjE0IC0wLjQzLDAuMzIgLTAuNTcsMC41NSAtMC4xNSwwLjIyIC0wLjIyLDAuNDkgLTAuMjIsMC44MSAwLDAuMzEgMC4wNSwwLjU2IDAuMTYsMC43OCAwLjEyLDAuMjIgMC4yOCwwLjQyIDAuNSwwLjYgMC4yMiwwLjE4IDAuNDgsMC4zNiAwLjgsMC41MiAwLjMxLDAuMTcgMC42NywwLjM2IDEuMDgsMC41NiAwLjQyLDAuMjEgMC44MiwwLjQzIDEuMiwwLjY2IDAuMzcsMC4yMyAwLjcsMC40OCAwLjk5LDAuNzYgMC4yOCwwLjI4IDAuNTEsMC41OCAwLjY3LDAuOTIgMC4xNywwLjM0IDAuMjUsMC43MyAwLjI1LDEuMTcgMCwwLjU3IC0wLjExLDEuMDYgLTAuMzQsMS40NiAtMC4yMiwwLjQxIC0wLjUzLDAuNzMgLTAuOTEsMC45OCAtMC4zOSwwLjI1IC0wLjgzLDAuNDQgLTEuMzMsMC41NSAtMC41MSwwLjExIC0xLjA0LDAuMTcgLTEuNTksMC4xNyAtMC4xOSwwIC0wLjQyLC0wLjAyIC0wLjY5LC0wLjA1IC0wLjI3LC0wLjAzIC0wLjU1LC0wLjA3IC0wLjgzLC0wLjEzIC0wLjI5LC0wLjA2IC0wLjU2LC0wLjEzIC0wLjgxLC0wLjIxIC0wLjI2LC0wLjA5IC0wLjQ2LC0wLjE4IC0wLjYxLC0wLjI5IHoiIHN0eWxlPSJmaWxsOiNmZmZmZmYiIGlua3NjYXBlOmNvbm5lY3Rvci1jdXJ2YXR1cmU9IjAiIGlkPSJwYXRoODYwOTciLz48cGF0aCBkPSJtIDQ3LjkzNDI2LDE3LjczNDcgaCAtMy4zOSB2IDEwLjUgaCAtMS4zOCB2IC0xMC41IGggLTMuMzggdiAtMS4yNCBoIDguMTUgeiIgc3R5bGU9ImZpbGw6I2ZmZmZmZiIgaW5rc2NhcGU6Y29ubmVjdG9yLWN1cnZhdHVyZT0iMCIgaWQ9InBhdGg4NjEwNSIvPiYjeGE7PC9zdmc+;" parent="1" vertex="1">
          <mxGeometry x="390" y="170" width="102" height="115.16" as="geometry" />
        </mxCell>
        <mxCell id="rxB6j44p4bmtlhbTxSTX-21" style="edgeStyle=orthogonalEdgeStyle;rounded=0;orthogonalLoop=1;jettySize=auto;html=1;exitX=0;exitY=0.5;exitDx=0;exitDy=0;entryX=1;entryY=0;entryDx=0;entryDy=0;" parent="1" source="rxB6j44p4bmtlhbTxSTX-18" target="rxB6j44p4bmtlhbTxSTX-8" edge="1">
          <mxGeometry relative="1" as="geometry" />
        </mxCell>
        <mxCell id="rxB6j44p4bmtlhbTxSTX-22" style="edgeStyle=orthogonalEdgeStyle;rounded=0;orthogonalLoop=1;jettySize=auto;html=1;exitX=0.25;exitY=0;exitDx=0;exitDy=0;entryX=1;entryY=0.25;entryDx=0;entryDy=0;" parent="1" source="rxB6j44p4bmtlhbTxSTX-18" target="rxB6j44p4bmtlhbTxSTX-6" edge="1">
          <mxGeometry relative="1" as="geometry" />
        </mxCell>
        <mxCell id="rxB6j44p4bmtlhbTxSTX-23" style="edgeStyle=orthogonalEdgeStyle;rounded=0;orthogonalLoop=1;jettySize=auto;html=1;exitX=0.75;exitY=0;exitDx=0;exitDy=0;entryX=0.789;entryY=0.211;entryDx=0;entryDy=0;entryPerimeter=0;" parent="1" source="rxB6j44p4bmtlhbTxSTX-18" edge="1">
          <mxGeometry relative="1" as="geometry">
            <mxPoint x="219.91000000000008" y="190.09000000000003" as="targetPoint" />
          </mxGeometry>
        </mxCell>
        <mxCell id="CGigTDH9bUQtcJNdLDHe-4" style="edgeStyle=orthogonalEdgeStyle;rounded=0;orthogonalLoop=1;jettySize=auto;html=1;exitX=1;exitY=1;exitDx=0;exitDy=0;" edge="1" parent="1" source="rxB6j44p4bmtlhbTxSTX-18" target="rxB6j44p4bmtlhbTxSTX-9">
          <mxGeometry relative="1" as="geometry" />
        </mxCell>
        <mxCell id="rxB6j44p4bmtlhbTxSTX-18" value="" style="shape=image;verticalLabelPosition=bottom;labelBackgroundColor=#ffffff;verticalAlign=top;aspect=fixed;imageAspect=0;image=data:image/svg+xml,PHN2ZyB4bWxuczpjYz0iaHR0cDovL2NyZWF0aXZlY29tbW9ucy5vcmcvbnMjIiB4bWxuczpkYz0iaHR0cDovL3B1cmwub3JnL2RjL2VsZW1lbnRzLzEuMS8iIHhtbG5zOmlua3NjYXBlPSJodHRwOi8vd3d3Lmlua3NjYXBlLm9yZy9uYW1lc3BhY2VzL2lua3NjYXBlIiB4bWxuczpyZGY9Imh0dHA6Ly93d3cudzMub3JnLzE5OTkvMDIvMjItcmRmLXN5bnRheC1ucyMiIHhtbG5zOnNvZGlwb2RpPSJodHRwOi8vc29kaXBvZGkuc291cmNlZm9yZ2UubmV0L0RURC9zb2RpcG9kaS0wLmR0ZCIgeG1sbnM6c3ZnPSJodHRwOi8vd3d3LnczLm9yZy8yMDAwL3N2ZyIgeG1sbnM9Imh0dHA6Ly93d3cudzMub3JnLzIwMDAvc3ZnIiB4bWxuczp4bGluaz0iaHR0cDovL3d3dy53My5vcmcvMTk5OS94bGluayIgdmVyc2lvbj0iMS4xIiBpZD0ic3ZnMTgxMDA3IiBpbmtzY2FwZTp2ZXJzaW9uPSIwLjkyLjMgKDI0MDU1NDYsIDIwMTgtMDMtMTEpIiBzb2RpcG9kaTpkb2NuYW1lPSJqYXZhc2NyaXB0LnN2ZyIgeD0iMHB4IiB5PSIwcHgiIHZpZXdCb3g9IjAgMCA0NSA0NSIgc3R5bGU9ImVuYWJsZS1iYWNrZ3JvdW5kOm5ldyAwIDAgNDUgNDU7IiB4bWw6c3BhY2U9InByZXNlcnZlIj4mI3hhOzxzb2RpcG9kaTpuYW1lZHZpZXcgYm9yZGVyY29sb3I9IiM2NjY2NjYiIGJvcmRlcm9wYWNpdHk9IjEiIGZpdC1tYXJnaW4tYm90dG9tPSIwIiBmaXQtbWFyZ2luLWxlZnQ9IjAiIGZpdC1tYXJnaW4tcmlnaHQ9IjAiIGZpdC1tYXJnaW4tdG9wPSIwIiBncmlkdG9sZXJhbmNlPSIxMCIgZ3VpZGV0b2xlcmFuY2U9IjEwIiBpZD0ibmFtZWR2aWV3MTgxMDA5IiBpbmtzY2FwZTpjdXJyZW50LWxheWVyPSJzdmcxODEwMDciIGlua3NjYXBlOmN4PSIyOS45OTk5ODUiIGlua3NjYXBlOmN5PSIyOS45OTk5ODUiIGlua3NjYXBlOnBhZ2VvcGFjaXR5PSIwIiBpbmtzY2FwZTpwYWdlc2hhZG93PSIyIiBpbmtzY2FwZTp3aW5kb3ctaGVpZ2h0PSIxMDE3IiBpbmtzY2FwZTp3aW5kb3ctbWF4aW1pemVkPSIxIiBpbmtzY2FwZTp3aW5kb3ctd2lkdGg9IjE5MjAiIGlua3NjYXBlOndpbmRvdy14PSItOCIgaW5rc2NhcGU6d2luZG93LXk9Ii04IiBpbmtzY2FwZTp6b29tPSIxMy45ODM4NzgiIG9iamVjdHRvbGVyYW5jZT0iMTAiIHBhZ2Vjb2xvcj0iI2ZmZmZmZiIgc2hvd2dyaWQ9ImZhbHNlIj4mI3hhOwk8L3NvZGlwb2RpOm5hbWVkdmlldz4mI3hhOzxnIGlkPSJnMTgxMDA1IiB0cmFuc2Zvcm09InRyYW5zbGF0ZSgtMC43NSwtMC43NSkiPiYjeGE7CTx0aXRsZSBpZD0idGl0bGUxODA5ODMiPlBhZ2UtMTwvdGl0bGU+JiN4YTsJPGcgaWQ9Imdyb3VwMTExOC0xIiB0cmFuc2Zvcm09InRyYW5zbGF0ZSgwLjc1LC0wLjc1KSI+JiN4YTsJCTx0aXRsZSBpZD0idGl0bGUxODA5ODUiPkphdmFTY3JpcHQ8L3RpdGxlPiYjeGE7CQk8ZyBpZD0ic2hhcGUxMTE5LTIiPiYjeGE7CQkJPHRpdGxlIGlkPSJ0aXRsZTE4MDk4NyI+cmVjdDcwNzU8L3RpdGxlPiYjeGE7CQkJPHJlY3QgaWQ9InJlY3QxODA5ODkiIHk9IjEuNSIgc3R5bGU9ImZpbGw6I0U0Q0I1ODsiIHdpZHRoPSI0NSIgaGVpZ2h0PSI0NSIvPiYjeGE7CQk8L2c+JiN4YTsJCTxnIGlkPSJzaGFwZTExMjAtNCIgdHJhbnNmb3JtPSJ0cmFuc2xhdGUoMTIuMzM3NSwtMi41MTI1KSI+JiN4YTsJCQk8dGl0bGUgaWQ9InRpdGxlMTgwOTkyIj5wYXRoNzA3NzwvdGl0bGU+JiN4YTsJCQk8cGF0aCBpZD0icGF0aDE4MDk5NCIgaW5rc2NhcGU6Y29ubmVjdG9yLWN1cnZhdHVyZT0iMCIgc3R5bGU9ImZpbGw6IzQ0NDQ0NDsiIGQ9Ik04LjIzLDI1LjIzaDMuODZ2MTUuMzUgICAgIGMwLDMuNjctMi40Niw1LjkyLTUuNzIsNS45MkMxLjIzLDQ2LjUsMCw0Mi43NSwwLDQyLjc1bDMuNDEtMi4wOGMwLDAsMC45MiwyLjE2LDIuNiwyLjE2YzEuNjcsMCwyLjI1LTAuOTMsMi4yNS0yLjgyTDguMjMsMjUuMjMgICAgIHoiLz4mI3hhOwkJPC9nPiYjeGE7CQk8ZyBpZD0ic2hhcGUxMTIxLTYiIHRyYW5zZm9ybT0idHJhbnNsYXRlKDI2LjU1LC0yLjc3NSkiPiYjeGE7CQkJPHRpdGxlIGlkPSJ0aXRsZTE4MDk5NyI+cGF0aDcwNzk8L3RpdGxlPiYjeGE7CQkJPHBhdGggaWQ9InBhdGgxODA5OTkiIGlua3NjYXBlOmNvbm5lY3Rvci1jdXJ2YXR1cmU9IjAiIHN0eWxlPSJmaWxsOiM0NDQ0NDQ7IiBkPSJNOS43NiwzMC44OGwzLTEuOTcgICAgIGMtMC45OS0yLjEtMy4xMy0zLjQyLTUuNDYtMy4zNmMtNC4wOCwwLTYuMTEsMi41OC02LjExLDUuOTNzMy4xOSw1LjE2LDUuMzIsNi4wN2MyLjI1LDAuOTYsMy40MywxLjc5LDMuNDMsMy4xNyAgICAgYzAsMS4wMS0wLjg0LDIuMDEtMi42NCwyLjA3Yy0yLjg2LDAuMDktNC4wOS0yLjYyLTQuMDktMi42MkwwLDQyLjMzYzAsMCwxLjgsNC4xNyw3LjQyLDQuMTdjNS42MywwLDYuNi0zLjk3LDYuNi01LjgzICAgICBzLTAuNjYtNC40Ni00LjY1LTYuMjVjLTQtMS43OS00LjIzLTIuNjItNC4yMy0zLjU5YzAtMC45NiwwLjg0LTEuNywyLjE2LTEuN3MyLjQ2LDEuNywyLjQ2LDEuN0w5Ljc2LDMwLjg4eiIvPiYjeGE7CQkJPHBhdGggaWQ9InBhdGgxODEwMDEiIGlua3NjYXBlOmNvbm5lY3Rvci1jdXJ2YXR1cmU9IjAiIHN0eWxlPSJmaWxsOm5vbmU7IiBkPSJNOS43NiwzMC44OGwzLTEuOTdjLTAuOTktMi4xLTMuMTMtMy40Mi01LjQ2LTMuMzYgICAgIGMtNC4wOCwwLTYuMTEsMi41OC02LjExLDUuOTNzMy4xOSw1LjE2LDUuMzIsNi4wN2MyLjI1LDAuOTYsMy40MywxLjc5LDMuNDMsMy4xN2MwLDEuMDEtMC44NCwyLjAxLTIuNjQsMi4wNyAgICAgYy0yLjg2LDAuMDktNC4wOS0yLjYyLTQuMDktMi42MkwwLDQyLjMzYzAsMCwxLjgsNC4xNyw3LjQyLDQuMTdjNS42MywwLDYuNi0zLjk3LDYuNi01Ljgzcy0wLjY2LTQuNDYtNC42NS02LjI1ICAgICBjLTQtMS43OS00LjIzLTIuNjItNC4yMy0zLjU5YzAtMC45NiwwLjg0LTEuNywyLjE2LTEuN3MyLjQ2LDEuNywyLjQ2LDEuNyIvPiYjeGE7CQk8L2c+JiN4YTsJPC9nPiYjeGE7PC9nPiYjeGE7PC9zdmc+;" parent="1" vertex="1">
          <mxGeometry x="152.5" y="208" width="25" height="25" as="geometry" />
        </mxCell>
        <mxCell id="rxB6j44p4bmtlhbTxSTX-20" style="edgeStyle=orthogonalEdgeStyle;rounded=0;orthogonalLoop=1;jettySize=auto;html=1;exitX=0.5;exitY=0;exitDx=0;exitDy=0;entryX=0.5;entryY=1;entryDx=0;entryDy=0;" parent="1" source="rxB6j44p4bmtlhbTxSTX-19" target="rxB6j44p4bmtlhbTxSTX-18" edge="1">
          <mxGeometry relative="1" as="geometry" />
        </mxCell>
        <mxCell id="rxB6j44p4bmtlhbTxSTX-19" value="" style="shape=image;verticalLabelPosition=bottom;labelBackgroundColor=#ffffff;verticalAlign=top;aspect=fixed;imageAspect=0;image=data:image/svg+xml,PHN2ZyB4bWxuczpjYz0iaHR0cDovL2NyZWF0aXZlY29tbW9ucy5vcmcvbnMjIiB4bWxuczpkYz0iaHR0cDovL3B1cmwub3JnL2RjL2VsZW1lbnRzLzEuMS8iIHhtbG5zOmlua3NjYXBlPSJodHRwOi8vd3d3Lmlua3NjYXBlLm9yZy9uYW1lc3BhY2VzL2lua3NjYXBlIiB4bWxuczpyZGY9Imh0dHA6Ly93d3cudzMub3JnLzE5OTkvMDIvMjItcmRmLXN5bnRheC1ucyMiIHhtbG5zOnNvZGlwb2RpPSJodHRwOi8vc29kaXBvZGkuc291cmNlZm9yZ2UubmV0L0RURC9zb2RpcG9kaS0wLmR0ZCIgeG1sbnM6c3ZnPSJodHRwOi8vd3d3LnczLm9yZy8yMDAwL3N2ZyIgeG1sbnM9Imh0dHA6Ly93d3cudzMub3JnLzIwMDAvc3ZnIiB4bWxuczp4bGluaz0iaHR0cDovL3d3dy53My5vcmcvMTk5OS94bGluayIgdmVyc2lvbj0iMS4xIiBpZD0ic3ZnMTg1OTAzIiBpbmtzY2FwZTp2ZXJzaW9uPSIwLjkyLjMgKDI0MDU1NDYsIDIwMTgtMDMtMTEpIiBzb2RpcG9kaTpkb2NuYW1lPSJucG0uc3ZnIiB4PSIwcHgiIHk9IjBweCIgdmlld0JveD0iMCAwIDQ1Ljc1IDE5LjUiIHN0eWxlPSJlbmFibGUtYmFja2dyb3VuZDpuZXcgMCAwIDQ1Ljc1IDE5LjU7IiB4bWw6c3BhY2U9InByZXNlcnZlIj4mI3hhOzxzb2RpcG9kaTpuYW1lZHZpZXcgYm9yZGVyY29sb3I9IiM2NjY2NjYiIGJvcmRlcm9wYWNpdHk9IjEiIGZpdC1tYXJnaW4tYm90dG9tPSIwIiBmaXQtbWFyZ2luLWxlZnQ9IjAiIGZpdC1tYXJnaW4tcmlnaHQ9IjAiIGZpdC1tYXJnaW4tdG9wPSIwIiBncmlkdG9sZXJhbmNlPSIxMCIgZ3VpZGV0b2xlcmFuY2U9IjEwIiBpZD0ibmFtZWR2aWV3MTg1OTA1IiBpbmtzY2FwZTpjdXJyZW50LWxheWVyPSJzdmcxODU5MDMiIGlua3NjYXBlOmN4PSIzMC41IiBpbmtzY2FwZTpjeT0iMTIuOTk5OTk3IiBpbmtzY2FwZTpwYWdlb3BhY2l0eT0iMCIgaW5rc2NhcGU6cGFnZXNoYWRvdz0iMiIgaW5rc2NhcGU6d2luZG93LWhlaWdodD0iMTAxNyIgaW5rc2NhcGU6d2luZG93LW1heGltaXplZD0iMSIgaW5rc2NhcGU6d2luZG93LXdpZHRoPSIxOTIwIiBpbmtzY2FwZTp3aW5kb3cteD0iLTgiIGlua3NjYXBlOndpbmRvdy15PSItOCIgaW5rc2NhcGU6em9vbT0iMjguMjg1NzE0IiBvYmplY3R0b2xlcmFuY2U9IjEwIiBwYWdlY29sb3I9IiNmZmZmZmYiIHNob3dncmlkPSJmYWxzZSI+JiN4YTsJPC9zb2RpcG9kaTpuYW1lZHZpZXc+JiN4YTs8ZyBpZD0iZzE4NTkwMSIgdHJhbnNmb3JtPSJ0cmFuc2xhdGUoLTAuNzUsLTAuNzUwMDExNzEpIj4mI3hhOwk8dGl0bGUgaWQ9InRpdGxlMTg1ODczIj5QYWdlLTE8L3RpdGxlPiYjeGE7CTxnIGlkPSJncm91cDkyMS0xIiB0cmFuc2Zvcm09InRyYW5zbGF0ZSgwLjc1LC0wLjc1KSI+JiN4YTsJCTx0aXRsZSBpZD0idGl0bGUxODU4NzUiPm5wbTwvdGl0bGU+JiN4YTsJCTxnIGlkPSJncm91cDkyMi0yIj4mI3hhOwkJCTx0aXRsZSBpZD0idGl0bGUxODU4NzciPkZpbGVOYW1lczwvdGl0bGU+JiN4YTsJCQk8ZyBpZD0ic2hhcGU5MjMtMyI+JiN4YTsJCQkJPHRpdGxlIGlkPSJ0aXRsZTE4NTg3OSI+cG9seWdvbjQyNjI8L3RpdGxlPiYjeGE7CQkJCTxwYXRoIGlkPSJwYXRoMTg1ODgxIiBpbmtzY2FwZTpjb25uZWN0b3ItY3VydmF0dXJlPSIwIiBzdHlsZT0iZmlsbDojQ0IzODM3OyIgZD0iTTAsMThoMTMuNXYzaDl2LTNoMjMuMjVWMS41SDBWMTh6Ii8+JiN4YTsJCQk8L2c+JiN4YTsJCQk8ZyBpZD0ic2hhcGU5MjQtNSIgdHJhbnNmb3JtPSJ0cmFuc2xhdGUoMTUuNzUsLTMpIj4mI3hhOwkJCQk8dGl0bGUgaWQ9InRpdGxlMTg1ODg0Ij5wYXRoNDI2NDwvdGl0bGU+JiN4YTsJCQkJPHBhdGggaWQ9InBhdGgxODU4ODYiIGlua3NjYXBlOmNvbm5lY3Rvci1jdXJ2YXR1cmU9IjAiIHN0eWxlPSJmaWxsOiNGRkZGRkY7IiBkPSJNMCw3LjVWMjFoNC41di0zaDUuMjVWNy41SDB6IE04LjI1LDE1Ljc1aC0zICAgICAgVjEwLjVoM1YxNS43NXoiLz4mI3hhOwkJCTwvZz4mI3hhOwkJCTxnIGlkPSJzaGFwZTkyNS03IiB0cmFuc2Zvcm09InRyYW5zbGF0ZSgyNy43NSwtNikiPiYjeGE7CQkJCTx0aXRsZSBpZD0idGl0bGUxODU4ODkiPnBvbHlnb240MjY2PC90aXRsZT4mI3hhOwkJCQk8cGF0aCBpZD0icGF0aDE4NTg5MSIgaW5rc2NhcGU6Y29ubmVjdG9yLWN1cnZhdHVyZT0iMCIgc3R5bGU9ImZpbGw6I0ZGRkZGRjsiIGQ9Ik0wLDEwLjVWMjFoNS4yNXYtNy41SDcuNVYyMWgzdi03LjVoMi4yNVYyMWgzICAgICAgVjEwLjVINS4yNUgzLjg2SDB6Ii8+JiN4YTsJCQk8L2c+JiN4YTsJCQk8ZyBpZD0ic2hhcGU5MjYtOSIgdHJhbnNmb3JtPSJ0cmFuc2xhdGUoMi4yNSwtNikiPiYjeGE7CQkJCTx0aXRsZSBpZD0idGl0bGUxODU4OTQiPnBvbHlnb240MjY4PC90aXRsZT4mI3hhOwkJCQk8cGF0aCBpZD0icGF0aDE4NTg5NiIgaW5rc2NhcGU6Y29ubmVjdG9yLWN1cnZhdHVyZT0iMCIgc3R5bGU9ImZpbGw6I0ZGRkZGRjsiIGQ9Ik01LjI1LDIxdi04LjI1aDNWMjFoM1YxMC41SDBWMjFINS4yNXoiLz4mI3hhOwkJCTwvZz4mI3hhOwkJPC9nPiYjeGE7CTwvZz4mI3hhOzwvZz4mI3hhOzwvc3ZnPg==;" parent="1" vertex="1">
          <mxGeometry x="142" y="280" width="46" height="20" as="geometry" />
        </mxCell>
        <mxCell id="rxB6j44p4bmtlhbTxSTX-27" style="edgeStyle=orthogonalEdgeStyle;rounded=0;orthogonalLoop=1;jettySize=auto;html=1;exitX=0;exitY=0.5;exitDx=0;exitDy=0;entryX=0.988;entryY=0.849;entryDx=0;entryDy=0;entryPerimeter=0;" parent="1" source="rxB6j44p4bmtlhbTxSTX-26" target="rxB6j44p4bmtlhbTxSTX-10" edge="1">
          <mxGeometry relative="1" as="geometry">
            <Array as="points">
              <mxPoint x="600" y="268" />
            </Array>
          </mxGeometry>
        </mxCell>
        <mxCell id="rxB6j44p4bmtlhbTxSTX-26" value="" style="shape=ext;double=1;whiteSpace=wrap;html=1;aspect=fixed;" parent="1" vertex="1">
          <mxGeometry x="600" y="134.5" width="232" height="232" as="geometry" />
        </mxCell>
        <mxCell id="CGigTDH9bUQtcJNdLDHe-1" value="" style="verticalLabelPosition=bottom;html=1;verticalAlign=top;align=center;strokeColor=none;fillColor=#00BEF2;shape=mxgraph.azure.azure_website;pointerEvents=1;" vertex="1" parent="1">
          <mxGeometry x="610" y="146.5" width="50" height="50" as="geometry" />
        </mxCell>
        <mxCell id="CGigTDH9bUQtcJNdLDHe-9" style="edgeStyle=orthogonalEdgeStyle;rounded=0;orthogonalLoop=1;jettySize=auto;html=1;exitX=0.25;exitY=1;exitDx=0;exitDy=0;exitPerimeter=0;entryX=1;entryY=0.5;entryDx=0;entryDy=0;" edge="1" parent="1" source="CGigTDH9bUQtcJNdLDHe-3" target="CGigTDH9bUQtcJNdLDHe-5">
          <mxGeometry relative="1" as="geometry" />
        </mxCell>
        <mxCell id="CGigTDH9bUQtcJNdLDHe-3" value="" style="sketch=0;points=[[0,0,0],[0.25,0,0],[0.5,0,0],[0.75,0,0],[1,0,0],[0,1,0],[0.25,1,0],[0.5,1,0],[0.75,1,0],[1,1,0],[0,0.25,0],[0,0.5,0],[0,0.75,0],[1,0.25,0],[1,0.5,0],[1,0.75,0]];outlineConnect=0;fontColor=#232F3E;gradientColor=#4D72F3;gradientDirection=north;fillColor=#3334B9;strokeColor=#ffffff;dashed=0;verticalLabelPosition=bottom;verticalAlign=top;align=center;html=1;fontSize=12;fontStyle=0;aspect=fixed;shape=mxgraph.aws4.resourceIcon;resIcon=mxgraph.aws4.documentdb_with_mongodb_compatibility;" vertex="1" parent="1">
          <mxGeometry x="690" y="268" width="78" height="78" as="geometry" />
        </mxCell>
        <mxCell id="CGigTDH9bUQtcJNdLDHe-18" style="edgeStyle=orthogonalEdgeStyle;rounded=0;orthogonalLoop=1;jettySize=auto;html=1;exitX=0;exitY=0.5;exitDx=0;exitDy=0;entryX=1;entryY=0.75;entryDx=0;entryDy=0;" edge="1" parent="1" source="CGigTDH9bUQtcJNdLDHe-5" target="rxB6j44p4bmtlhbTxSTX-29">
          <mxGeometry relative="1" as="geometry" />
        </mxCell>
        <mxCell id="CGigTDH9bUQtcJNdLDHe-5" value="" style="strokeColor=#dddddd;shadow=1;strokeWidth=1;rounded=1;absoluteArcSize=1;arcSize=2;" vertex="1" parent="1">
          <mxGeometry x="400" y="380" width="120" height="64" as="geometry" />
        </mxCell>
        <mxCell id="CGigTDH9bUQtcJNdLDHe-6" value="Firebase" style="sketch=0;dashed=0;connectable=0;html=1;fillColor=#5184F3;strokeColor=none;shape=mxgraph.gcp2.firebase;part=1;labelPosition=right;verticalLabelPosition=middle;align=left;verticalAlign=middle;spacingLeft=5;fontColor=#999999;fontSize=12;" vertex="1" parent="CGigTDH9bUQtcJNdLDHe-5">
          <mxGeometry width="32.4" height="45" relative="1" as="geometry">
            <mxPoint x="5" y="7" as="offset" />
          </mxGeometry>
        </mxCell>
        <mxCell id="CGigTDH9bUQtcJNdLDHe-10" style="edgeStyle=orthogonalEdgeStyle;rounded=0;orthogonalLoop=1;jettySize=auto;html=1;exitX=0;exitY=0.5;exitDx=0;exitDy=0;exitPerimeter=0;entryX=1;entryY=0.5;entryDx=0;entryDy=0;entryPerimeter=0;" edge="1" parent="1" source="CGigTDH9bUQtcJNdLDHe-7" target="CGigTDH9bUQtcJNdLDHe-1">
          <mxGeometry relative="1" as="geometry" />
        </mxCell>
        <mxCell id="CGigTDH9bUQtcJNdLDHe-11" style="edgeStyle=orthogonalEdgeStyle;rounded=0;orthogonalLoop=1;jettySize=auto;html=1;exitX=0.5;exitY=1;exitDx=0;exitDy=0;exitPerimeter=0;" edge="1" parent="1" source="CGigTDH9bUQtcJNdLDHe-7" target="CGigTDH9bUQtcJNdLDHe-3">
          <mxGeometry relative="1" as="geometry" />
        </mxCell>
        <mxCell id="CGigTDH9bUQtcJNdLDHe-15" style="edgeStyle=orthogonalEdgeStyle;rounded=0;orthogonalLoop=1;jettySize=auto;html=1;exitX=0;exitY=0.75;exitDx=0;exitDy=0;exitPerimeter=0;" edge="1" parent="1" source="CGigTDH9bUQtcJNdLDHe-7" target="CGigTDH9bUQtcJNdLDHe-13">
          <mxGeometry relative="1" as="geometry">
            <Array as="points">
              <mxPoint x="740" y="220" />
              <mxPoint x="635" y="220" />
            </Array>
          </mxGeometry>
        </mxCell>
        <mxCell id="CGigTDH9bUQtcJNdLDHe-7" value="" style="outlineConnect=0;dashed=0;verticalLabelPosition=bottom;verticalAlign=top;align=center;html=1;shape=mxgraph.aws3.android;fillColor=#8CC64F;gradientColor=none;" vertex="1" parent="1">
          <mxGeometry x="730" y="146.5" width="70.5" height="49" as="geometry" />
        </mxCell>
        <mxCell id="CGigTDH9bUQtcJNdLDHe-13" value="" style="sketch=0;aspect=fixed;html=1;points=[];align=center;image;fontSize=12;image=img/lib/mscae/Cache_Redis_Product.svg;" vertex="1" parent="1">
          <mxGeometry x="610" y="258" width="50" height="42" as="geometry" />
        </mxCell>
        <mxCell id="CGigTDH9bUQtcJNdLDHe-16" value="Frontend Application" style="text;html=1;strokeColor=none;fillColor=none;align=center;verticalAlign=middle;whiteSpace=wrap;rounded=0;" vertex="1" parent="1">
          <mxGeometry x="107" y="380" width="113" height="30" as="geometry" />
        </mxCell>
        <mxCell id="CGigTDH9bUQtcJNdLDHe-17" value="REST APIs" style="text;html=1;strokeColor=none;fillColor=none;align=center;verticalAlign=middle;whiteSpace=wrap;rounded=0;" vertex="1" parent="1">
          <mxGeometry x="391" y="292" width="101" height="30" as="geometry" />
        </mxCell>
        <mxCell id="CGigTDH9bUQtcJNdLDHe-19" value="Firebase Notification" style="text;html=1;strokeColor=none;fillColor=none;align=center;verticalAlign=middle;whiteSpace=wrap;rounded=0;" vertex="1" parent="1">
          <mxGeometry x="365" y="460" width="190" height="30" as="geometry" />
        </mxCell>
        <mxCell id="CGigTDH9bUQtcJNdLDHe-20" value="MongoDB Triggers" style="text;html=1;strokeColor=none;fillColor=none;align=center;verticalAlign=middle;whiteSpace=wrap;rounded=0;" vertex="1" parent="1">
          <mxGeometry x="565" y="410" width="140" height="30" as="geometry" />
        </mxCell>
        <mxCell id="CGigTDH9bUQtcJNdLDHe-21" value="&lt;font style=&quot;font-size: 8px;&quot;&gt;Redis Cache Storage&lt;/font&gt;" style="text;html=1;strokeColor=none;fillColor=none;align=center;verticalAlign=middle;whiteSpace=wrap;rounded=0;" vertex="1" parent="1">
          <mxGeometry x="605" y="300" width="60" height="30" as="geometry" />
        </mxCell>
        <mxCell id="CGigTDH9bUQtcJNdLDHe-22" style="edgeStyle=orthogonalEdgeStyle;rounded=0;orthogonalLoop=1;jettySize=auto;html=1;exitX=0.5;exitY=1;exitDx=0;exitDy=0;fontSize=8;" edge="1" parent="1" source="CGigTDH9bUQtcJNdLDHe-21" target="CGigTDH9bUQtcJNdLDHe-21">
          <mxGeometry relative="1" as="geometry" />
        </mxCell>
        <mxCell id="CGigTDH9bUQtcJNdLDHe-23" value="&lt;font style=&quot;font-size: 13px;&quot;&gt;End User Client&lt;/font&gt;" style="text;html=1;strokeColor=none;fillColor=none;align=center;verticalAlign=middle;whiteSpace=wrap;rounded=0;fontSize=8;" vertex="1" parent="1">
          <mxGeometry x="110" y="60" width="120" height="30" as="geometry" />
        </mxCell>
        <mxCell id="CGigTDH9bUQtcJNdLDHe-24" value="&lt;font style=&quot;font-size: 8px;&quot;&gt;Node.js&amp;nbsp;&lt;br&gt;Backend&amp;nbsp;&lt;/font&gt;" style="text;html=1;strokeColor=none;fillColor=none;align=center;verticalAlign=middle;whiteSpace=wrap;rounded=0;fontSize=13;" vertex="1" parent="1">
          <mxGeometry x="772" y="196.5" width="60" height="30" as="geometry" />
        </mxCell>
        <mxCell id="CGigTDH9bUQtcJNdLDHe-25" value="&lt;font style=&quot;font-size: 8px;&quot;&gt;Document DB&lt;br&gt;(mongoDB)&lt;/font&gt;" style="text;html=1;strokeColor=none;fillColor=none;align=center;verticalAlign=middle;whiteSpace=wrap;rounded=0;fontSize=13;" vertex="1" parent="1">
          <mxGeometry x="723.5" y="292" width="157" height="30" as="geometry" />
        </mxCell>
        <mxCell id="CGigTDH9bUQtcJNdLDHe-26" value="Azure Web Servies (Host)" style="text;html=1;strokeColor=none;fillColor=none;align=center;verticalAlign=middle;whiteSpace=wrap;rounded=0;fontSize=8;" vertex="1" parent="1">
          <mxGeometry x="610" y="196" width="60" height="30" as="geometry" />
        </mxCell>
        <mxCell id="CGigTDH9bUQtcJNdLDHe-27" value="&lt;font style=&quot;font-size: 12px;&quot;&gt;Backedn Architecture&lt;/font&gt;" style="text;html=1;strokeColor=none;fillColor=none;align=center;verticalAlign=middle;whiteSpace=wrap;rounded=0;fontSize=8;strokeWidth=8;" vertex="1" parent="1">
          <mxGeometry x="651" y="104.5" width="130" height="30" as="geometry" />
        </mxCell>
      </root>
    </mxGraphModel>
  </diagram>
</mxfile>
